<svg width="81" height="82" viewBox="0 0 81 82" fill="none" xmlns="http://www.w3.org/2000/svg">
<g clip-path="url(#clip0_462_221260)">
<g clip-path="url(#clip1_462_221260)">
<mask id="mask0_462_221260" style="mask-type:luminance" maskUnits="userSpaceOnUse" x="0" y="0" width="81" height="81">
<path d="M80.3456 40.3383C80.3456 18.3629 62.531 0.54834 40.5556 0.54834C18.5802 0.54834 0.765625 18.3629 0.765625 40.3383C0.765625 62.3137 18.5802 80.1283 40.5556 80.1283C62.531 80.1283 80.3456 62.3137 80.3456 40.3383Z" fill="white"/>
</mask>
<g mask="url(#mask0_462_221260)">
<path d="M80.3456 40.3383C80.3456 18.3629 62.531 0.54834 40.5556 0.54834C18.5802 0.54834 0.765625 18.3629 0.765625 40.3383C0.765625 62.3137 18.5802 80.1283 40.5556 80.1283C62.531 80.1283 80.3456 62.3137 80.3456 40.3383Z" fill="#3D1909"/>
<mask id="mask1_462_221260" style="mask-type:luminance" maskUnits="userSpaceOnUse" x="22" y="22" width="71" height="67">
<path d="M92.9379 22.6538H22.8711V88.7104H92.9379V22.6538Z" fill="white"/>
</mask>
<g mask="url(#mask1_462_221260)">
<path d="M88.484 25.3857V84.5679C88.484 86.595 86.8094 88.2695 84.7824 88.2695H27.0103C24.9832 88.2695 23.3086 86.595 23.3086 84.5679V26.7958C23.3086 24.7687 24.9832 23.0942 27.0103 23.0942H86.1924C87.4263 23.0942 88.484 24.1077 88.484 25.3857Z" fill="#3D1909" stroke="#F46C31" stroke-width="1.1398" stroke-miterlimit="10"/>
<path d="M85.2198 27.3687V83.9509C85.2198 84.5237 84.7351 84.9644 84.1623 84.9644H27.58C27.0071 84.9644 26.5664 84.4797 26.5664 83.9509V27.3687C26.5664 26.7958 27.0071 26.311 27.58 26.311H84.1623C84.7351 26.3551 85.2198 26.7958 85.2198 27.3687Z" stroke="#F46C31" stroke-width="1.1398" stroke-miterlimit="10"/>
<path d="M31.0195 23.0942H83.6357H86.1916" stroke="#F46C31" stroke-width="1.1398" stroke-miterlimit="10"/>
<path d="M37.7622 44.9077C40.9748 44.9077 43.5791 42.3033 43.5791 39.0909C43.5791 35.8783 40.9748 33.2739 37.7622 33.2739C34.5497 33.2739 31.9453 35.8783 31.9453 39.0909C31.9453 42.3033 34.5497 44.9077 37.7622 44.9077Z" fill="#FF600D" stroke="#F46C31" stroke-width="1.1398" stroke-miterlimit="10"/>
<path d="M78.3019 79.9407H33.4855C32.2957 79.9407 31.5907 78.6627 32.1636 77.6492L36.3059 70.4663L40.4481 63.2833C41.021 62.2698 42.5193 62.2698 43.0922 63.2833L47.2345 70.4663L48.1599 72.0967C48.7328 73.1103 50.1871 73.1103 50.7599 72.0967L54.9462 64.9579L62.3055 52.2665C62.8784 51.253 64.3767 51.253 64.9495 52.2665L72.2647 64.9579L79.5798 77.6492C80.1967 78.7068 79.4476 79.9407 78.3019 79.9407Z" fill="#F46C31" stroke="#F46C31" stroke-width="1.1398" stroke-miterlimit="10"/>
</g>
</g>
</g>
</g>
<defs>
<clipPath id="clip0_462_221260">
<rect width="80" height="81.03" fill="white" transform="translate(0.5)"/>
</clipPath>
<clipPath id="clip1_462_221260">
<rect width="80" height="81.039" fill="white" transform="translate(0.5 -0.00439453)"/>
</clipPath>
</defs>
</svg>
