<svg width="31" height="31" viewBox="0 0 31 31" fill="none" xmlns="http://www.w3.org/2000/svg">
<path d="M30.9656 15.1733C30.9656 23.5624 24.1813 30.386 15.7517 30.386C12.3 30.386 9.12964 29.2223 6.56022 27.2955V25.4486C6.56022 25.0075 6.92149 24.6057 7.40318 24.6057H25.3057C25.452 24.6071 25.596 24.5697 25.7231 24.4973C25.8502 24.4249 25.9559 24.3201 26.0294 24.1936C26.1028 24.0671 26.1414 23.9234 26.1412 23.7771C26.141 23.6308 26.102 23.4872 26.0282 23.3609L24.3018 20.3527C24.2224 20.2327 24.1153 20.1335 23.9896 20.0635C23.8638 19.9936 23.7231 19.955 23.5792 19.9509H7.44372C7.22054 19.9521 7.00685 20.0414 6.84904 20.1992C6.69122 20.357 6.60201 20.5707 6.60076 20.7938V22.4798C6.60354 22.5912 6.58363 22.7021 6.54226 22.8056C6.50088 22.9091 6.43889 23.0032 6.36005 23.082C6.28121 23.1609 6.18717 23.2229 6.08364 23.2642C5.98011 23.3056 5.86925 23.3255 5.75779 23.3227H2.90818C2.50531 22.6975 2.15591 22.0394 1.86372 21.3554H5.75779C5.86925 21.3582 5.98011 21.3383 6.08364 21.2969C6.18717 21.2555 6.28121 21.1936 6.36005 21.1147C6.43889 21.0359 6.50088 20.9418 6.54226 20.8383C6.58363 20.7348 6.60354 20.6239 6.60076 20.5125V18.8265C6.60076 18.3854 6.96202 17.9836 7.44372 17.9836H21.4927C21.6388 17.9849 21.7826 17.9475 21.9096 17.8751C22.0365 17.8028 22.1421 17.6982 22.2155 17.5718C22.2889 17.4455 22.3275 17.302 22.3275 17.1559C22.3274 17.0098 22.2887 16.8663 22.2152 16.74L20.4888 13.7294C20.4094 13.6094 20.3023 13.5102 20.1766 13.4403C20.0508 13.3703 19.9101 13.3317 19.7662 13.3276H7.44372C7.22054 13.3289 7.00685 13.4181 6.84904 13.5759C6.69122 13.7337 6.60201 13.9474 6.60076 14.1706V15.8565C6.60354 15.968 6.58363 16.0788 6.54226 16.1824C6.50088 16.2859 6.43889 16.3799 6.36005 16.4588C6.28121 16.5376 6.18717 16.5996 6.08364 16.641C5.98011 16.6823 5.86925 16.7022 5.75779 16.6995H0.618947C0.572322 16.2191 0.545671 15.737 0.539062 15.2544V14.7322H5.71726C5.82871 14.7349 5.93957 14.715 6.0431 14.6737C6.14663 14.6323 6.24067 14.5703 6.31951 14.4914C6.39835 14.4126 6.46034 14.3186 6.50172 14.215C6.5431 14.1115 6.563 14.0007 6.56022 13.8892V12.2033C6.55744 12.0918 6.57734 11.981 6.61872 11.8774C6.66009 11.7739 6.72208 11.6798 6.80092 11.601C6.87976 11.5222 6.9738 11.4602 7.07733 11.4188C7.18086 11.3774 7.29172 11.3575 7.40318 11.3603H17.5986C17.7447 11.3616 17.8885 11.3242 18.0155 11.2519C18.1425 11.1796 18.248 11.0749 18.3214 10.9486C18.3948 10.8222 18.4334 10.6787 18.4334 10.5326C18.4334 10.3865 18.3946 10.243 18.3211 10.1167L16.6352 7.06442C16.5557 6.9446 16.4486 6.84566 16.3228 6.77594C16.1971 6.70621 16.0564 6.66776 15.9127 6.66381H7.44372C7.22074 6.66506 7.00724 6.75411 6.84945 6.91166C6.69167 7.06922 6.60232 7.2826 6.60076 7.50558V9.19269C6.60354 9.30415 6.58363 9.41501 6.54226 9.51854C6.50088 9.62207 6.43889 9.71611 6.36005 9.79495C6.28121 9.87379 6.18717 9.93578 6.08364 9.97715C5.98011 10.0185 5.86925 10.0384 5.75779 10.0357H1.4631C1.70395 9.35365 1.98414 8.71219 2.34541 8.06835H5.75779C5.86915 8.07112 5.97991 8.05125 6.08336 8.00995C6.18681 7.96864 6.28079 7.90676 6.35961 7.82805C6.43843 7.74934 6.50045 7.65545 6.5419 7.55206C6.58335 7.44867 6.60337 7.33794 6.60076 7.22658V5.53946C6.60076 5.09831 6.96202 4.6965 7.44372 4.6965H13.8261C13.9724 4.69792 14.1165 4.66054 14.2436 4.58816C14.3707 4.51578 14.4764 4.41099 14.5498 4.28448C14.6233 4.15796 14.6618 4.01424 14.6616 3.86795C14.6614 3.72166 14.6225 3.57805 14.5487 3.45173L12.8222 0.441154C12.7817 0.401808 12.7817 0.361269 12.7423 0.321923C13.7057 0.119231 14.749 0 15.7923 0C24.142 0 30.9656 6.78423 30.9656 15.1733Z" fill="#F46C31"/>
</svg>
