<svg width="52" height="51" viewBox="0 0 52 51" fill="none" xmlns="http://www.w3.org/2000/svg">
<path d="M51.175 25.6615C51.175 39.5638 39.9333 50.8721 25.9644 50.8721C20.2437 50.8721 14.9888 48.943 10.7316 45.7501C10.7316 45.6836 10.7316 45.5506 10.7316 45.4839V42.6902C10.7316 41.9585 11.3303 41.2934 12.1285 41.2934H41.7959C42.8602 41.2934 43.5254 40.1624 42.9932 39.2313L40.1328 34.2423C39.8668 33.8431 39.4012 33.5771 38.9355 33.5771H12.195C11.4633 33.5771 10.7981 34.1758 10.7981 34.9741V37.7013C10.7981 38.4995 10.1995 39.0981 9.40124 39.0981H4.6784C4.01321 38.0338 3.41455 36.9695 2.94891 35.8387H9.46774C10.266 35.8387 10.8646 35.2401 10.8646 34.4419V31.648C10.8646 30.9164 11.4633 30.2512 12.2615 30.2512H35.5431C36.6074 30.2512 37.2726 29.1204 36.7404 28.1891L33.8801 23.2002C33.614 22.8011 33.1485 22.5351 32.6827 22.5351H12.195C11.4633 22.4686 10.7981 23.0671 10.7981 23.8654V26.6592C10.7981 27.4573 10.1995 28.0561 9.40124 28.0561H0.953351C0.886831 27.2578 0.820312 26.4596 0.820312 25.6615C0.820312 25.3953 0.820312 25.1292 0.820312 24.7967H9.46774C10.266 24.7967 10.8646 24.1979 10.8646 23.3997V20.606C10.8646 19.8077 11.4633 19.2092 12.2615 19.2092H29.1573C30.2216 19.2092 30.8869 18.0782 30.3546 17.1471L27.4278 12.1581C27.1617 11.759 26.6962 11.4929 26.2304 11.4929H12.195C11.4633 11.4929 10.7981 12.0916 10.7981 12.8898V15.6836C10.7981 16.4818 10.1995 17.0804 9.40124 17.0804H2.35025C2.74935 15.9497 3.21499 14.8854 3.81365 13.8211H9.46774C10.266 13.8211 10.8646 13.2224 10.8646 12.4242V9.63038C10.8646 8.89867 11.4633 8.23349 12.2615 8.23349H22.7715C23.8358 8.23349 24.5011 7.10267 23.9688 6.17141L21.1085 1.11598C21.042 1.04946 21.042 0.982946 20.9755 0.916428C22.572 0.583834 24.3014 0.384277 26.0309 0.384277C39.9333 0.450796 51.175 11.6925 51.175 25.6615Z" fill="#838F91"/>
</svg>
