<svg width="81" height="82" viewBox="0 0 81 82" fill="none" xmlns="http://www.w3.org/2000/svg">
<g clip-path="url(#clip0_462_221225)">
<g clip-path="url(#clip1_462_221225)">
<mask id="mask0_462_221225" style="mask-type:luminance" maskUnits="userSpaceOnUse" x="0" y="0" width="81" height="81">
<path d="M80.4315 40.3383C80.4315 18.3629 62.6169 0.54834 40.6415 0.54834C18.6661 0.54834 0.851562 18.3629 0.851562 40.3383C0.851562 62.3137 18.6661 80.1283 40.6415 80.1283C62.6169 80.1283 80.4315 62.3137 80.4315 40.3383Z" fill="white"/>
</mask>
<g mask="url(#mask0_462_221225)">
<path d="M80.4315 40.3383C80.4315 18.3629 62.6169 0.54834 40.6415 0.54834C18.6661 0.54834 0.851562 18.3629 0.851562 40.3383C0.851562 62.3137 18.6661 80.1283 40.6415 80.1283C62.6169 80.1283 80.4315 62.3137 80.4315 40.3383Z" fill="#3D1909"/>
<path d="M61.8483 66.5786L55.9183 67.62L55.7695 67.6413V65.9623L60.5093 64.2832C60.5305 64.3044 60.5305 64.3044 60.5518 64.3257C61.1681 64.9208 61.6357 65.7072 61.8483 66.5786Z" fill="#3D1909" stroke="#F46C31" stroke-width="1.01937" stroke-miterlimit="10"/>
<path d="M60.5108 64.2834L55.7711 65.9624V67.6416L33.6242 71.5311C31.6689 71.8711 29.671 71.9137 27.7155 71.6162C26.8228 71.4886 25.9302 71.2973 25.0375 71.0422L-4.86719 62.2005V50.2556L14.1766 48.2364C16.4083 48.0027 18.6825 48.3852 20.7016 49.3842L35.4095 56.4831C36.7274 57.1207 37.6625 58.2897 38.0451 59.6499L32.689 58.5873L32.2002 60.7127L20.5316 58.5023C20.4253 58.481 20.3828 58.6511 20.4891 58.6723L36.8337 63.3695L57.0463 62.9232C58.3641 62.8806 59.6182 63.412 60.5108 64.2834Z" fill="#3D1909" stroke="#F46C31" stroke-width="1.01937" stroke-miterlimit="10" stroke-linecap="round" stroke-linejoin="round"/>
<path d="M38.1504 61.8394L32.1992 60.7129L32.6881 58.5874L38.0441 59.6502C38.2355 60.3303 38.278 61.0955 38.1504 61.8394Z" fill="#3D1909" stroke="#F46C31" stroke-width="1.01937" stroke-miterlimit="10"/>
<path d="M32.1992 60.7115V60.6914" stroke="#F46C31" stroke-width="1.01937" stroke-miterlimit="10"/>
<path d="M55.5579 18.6291C60.0001 23.3262 59.7237 30.7865 55.1541 35.3561L39.5748 50.9567C39.0009 51.5306 38.087 51.5306 37.5132 50.9567L21.9338 35.3561C17.3642 30.7865 17.0878 23.3262 21.53 18.6291C26.1421 13.7618 33.8362 13.6767 38.5546 18.3952C43.2517 13.6767 50.9458 13.7618 55.5579 18.6291Z" fill="#EC6B30" stroke="#F46C31" stroke-width="1.01937" stroke-miterlimit="10"/>
<path d="M54.7528 29.707C55.9829 28.9967 55.6668 26.1465 54.0469 23.3409C52.427 20.5352 50.1167 18.8365 48.8867 19.5467C47.6566 20.2569 47.9727 23.1071 49.5926 25.9127C51.2125 28.7184 53.5228 30.4171 54.7528 29.707Z" fill="#3D1909" stroke="#F46C31" stroke-width="1.01937" stroke-miterlimit="10"/>
<path opacity="0.3" d="M27.7155 71.6159C26.8228 71.4885 25.9302 71.2972 25.0375 71.0421L-4.86719 62.2004V56.313L27.7155 71.6159Z" fill="#FBC4AD"/>
</g>
</g>
</g>
<defs>
<clipPath id="clip0_462_221225">
<rect width="80" height="81.03" fill="white" transform="translate(0.5)"/>
</clipPath>
<clipPath id="clip1_462_221225">
<rect width="80" height="81.039" fill="white" transform="translate(0.5 -0.00439453)"/>
</clipPath>
</defs>
</svg>
