<svg width="427" height="382" viewBox="0 0 427 382" fill="none" xmlns="http://www.w3.org/2000/svg">
<g clip-path="url(#clip0_465_225087)">
<path d="M581.003 100.005V56.1008C581.003 41.4801 551.173 28.1836 502.473 18.3008C479.627 13.6631 452.624 9.77778 422.598 6.85816C397.135 4.38101 369.499 2.60147 340.377 1.64549C324.261 1.11583 307.689 0.841309 290.782 0.841309C260.459 0.841309 231.224 1.72624 203.749 3.37013C85.9863 10.4076 0.558594 31.3551 0.558594 56.1008V123.895C0.558594 135.324 18.7836 145.94 50.0014 154.754V189.16C18.7836 197.97 0.558594 208.589 0.558594 220.019V287.813C0.558594 296.081 10.1022 303.925 27.2 310.969V351.741C27.2 363.677 47.0818 374.733 80.8834 383.766C83.8515 384.56 86.9261 385.335 90.1073 386.098C109.324 390.7 132.316 394.708 158.192 397.947C161.228 398.325 164.306 398.693 167.416 399.052C188.505 401.481 211.349 403.415 235.5 404.765C238.555 404.936 241.63 405.098 244.724 405.25C266.531 406.322 289.329 406.923 312.805 406.99C314.343 406.994 315.88 406.997 317.42 406.997C318.961 406.997 320.498 406.994 322.032 406.99C345.512 406.923 368.31 406.322 390.117 405.25C393.211 405.098 396.289 404.936 399.341 404.765C423.492 403.415 446.336 401.481 467.425 399.052C470.539 398.697 473.613 398.325 476.649 397.947C502.525 394.708 525.514 390.703 544.734 386.098C547.911 385.335 550.986 384.557 553.957 383.766C581.991 376.273 600.448 367.391 605.932 357.77C607.063 355.791 607.641 353.778 607.641 351.737V283.947C607.641 275.679 598.097 267.834 580.999 260.79V229.514C606.649 222.273 623.528 213.811 628.73 204.688C629.861 202.705 630.439 200.693 630.439 198.655V130.864C630.439 119.434 612.214 108.815 580.996 100.005H581.003Z" fill="#F49D5A"/>
<path d="M527.319 252.045C550.369 245.882 566.947 238.784 575.16 231.107C572.686 231.753 570.144 232.392 567.532 233.015C552.808 236.542 535.868 239.717 517.113 242.469C506.701 245.301 496.037 247.313 485.431 249.102C465.594 252.448 445.577 254.77 425.543 256.595C374.088 261.278 322.31 262.69 270.661 262.102C222.2 261.549 173.588 259.305 125.466 253.336C108.035 251.173 90.6015 248.589 73.4681 244.665C62.3646 242.123 50.7959 239.197 40.7129 233.726C34.9254 230.583 27.9816 225.022 29.9097 217.526C31.8572 209.959 40.6774 206.022 47.1916 203.303C48.2897 202.844 49.3975 202.405 50.5117 201.982C50.1694 200.884 49.9982 199.776 49.9982 198.662V189.163C18.7836 197.97 0.558594 208.589 0.558594 220.019C0.558594 221.166 0.742684 222.303 1.10441 223.433C2.11852 226.598 4.53107 229.692 8.22903 232.692C16.9427 239.762 32.7906 246.309 54.242 252.045C57.2133 252.839 60.2879 253.614 63.4691 254.376C82.6856 258.979 105.678 262.987 131.554 266.223C134.589 266.604 137.664 266.972 140.777 267.331C161.867 269.759 184.711 271.691 208.862 273.044C211.917 273.215 214.992 273.376 218.086 273.528C239.892 274.601 262.694 275.201 286.17 275.269C287.704 275.269 289.242 275.275 290.782 275.275C292.323 275.275 293.86 275.272 295.394 275.269C318.871 275.198 341.672 274.597 363.475 273.528C366.573 273.376 369.647 273.215 372.703 273.044C396.851 271.694 419.694 269.759 440.784 267.331C443.897 266.972 446.972 266.604 450.008 266.223C475.884 262.987 498.876 258.979 518.092 254.376C521.273 253.614 524.348 252.836 527.316 252.045H527.319Z" fill="#FBC371"/>
<path d="M46.4168 226.895C47.3631 227.373 48.3287 227.816 49.2976 228.252C49.5269 228.355 49.7595 228.452 49.992 228.552C50.034 228.571 50.0857 228.591 50.147 228.616C50.6993 228.843 51.2548 229.062 51.8103 229.279C54.2648 230.231 56.7549 231.081 59.2676 231.872C72.942 236.171 87.1266 238.874 101.25 241.177C120.473 244.316 139.851 246.473 159.248 248.182C207.086 252.393 255.185 253.83 303.204 253.472C291.06 253.178 279.149 252.739 267.522 252.167C264.425 252.015 261.351 251.854 258.295 251.683C234.144 250.333 211.301 248.401 190.214 245.973C187.101 245.614 184.026 245.246 180.99 244.865C155.114 241.626 132.122 237.621 112.906 233.015C109.725 232.253 106.65 231.475 103.682 230.683C80.2991 224.431 63.5759 217.216 55.4921 209.41C54.4909 209.758 53.4929 210.12 52.5014 210.495C51.8232 210.753 51.1514 211.021 50.4764 211.289C50.2148 211.393 50.0824 211.444 50.0211 211.467C49.9597 211.496 49.837 211.551 49.6077 211.654C48.6775 212.071 47.7442 212.488 46.8334 212.94C45.1314 213.783 43.4584 214.703 41.892 215.779C41.5594 216.008 41.2396 216.247 40.9102 216.483C42.0729 215.643 40.9909 216.421 40.7326 216.657C40.219 217.119 39.7411 217.603 39.2534 218.091C39.2082 218.136 39.1694 218.178 39.1307 218.22C39.1436 218.198 39.1565 218.175 39.1726 218.156C39.1565 218.178 39.1436 218.201 39.1274 218.223C38.869 218.511 38.7948 218.682 38.8981 218.559C38.84 218.643 38.7883 218.724 38.7366 218.811C38.6333 218.989 38.5461 219.218 38.433 219.409C38.4395 219.531 38.3685 219.803 38.3039 220.019C38.3039 220.055 38.3039 220.087 38.2974 220.119C38.3135 220.181 38.3265 220.255 38.3458 220.352C38.3588 220.423 38.3814 220.497 38.4137 220.575C38.3749 220.51 38.3297 220.436 38.2812 220.355C38.4201 220.588 38.5009 220.856 38.6527 221.082C38.7851 221.282 38.9304 221.492 39.0467 221.699C39.5667 222.202 40.0253 222.758 40.5711 223.239C40.7616 223.407 40.9554 223.568 41.1492 223.724C40.9425 223.559 41.0039 223.61 41.175 223.746C41.259 223.814 41.343 223.882 41.4237 223.953C41.3204 223.866 41.2396 223.801 41.1815 223.753C41.2881 223.837 41.4366 223.946 41.5917 224.053C43.1419 225.109 44.7503 226.055 46.4232 226.898L46.4168 226.895Z" fill="#FBC371"/>
<path d="M581.001 100.005V112.846C585.901 114.658 590.616 116.906 594.669 119.958C600.179 124.111 603.786 130.819 599.291 137.191C594.311 144.251 584.599 147.578 576.793 150.207C563.202 154.786 548.986 157.56 534.869 159.941C515.032 163.287 495.015 165.609 474.981 167.434C470.466 167.844 465.948 168.228 461.43 168.593C457.69 169.11 453.882 169.614 450.009 170.098C446.974 170.479 443.899 170.847 440.785 171.206C419.696 173.634 396.852 175.566 372.704 176.916C369.649 177.087 366.571 177.248 363.477 177.4C341.671 178.472 318.872 179.07 295.396 179.141C293.862 179.147 292.325 179.147 290.784 179.147C289.243 179.147 287.706 179.147 286.172 179.141C262.696 179.073 239.894 178.472 218.088 177.4C214.994 177.248 211.916 177.087 208.864 176.916C185.898 175.63 164.117 173.822 143.902 171.558C155.445 173.576 167.847 175.42 180.995 177.064C184.031 177.445 187.105 177.814 190.219 178.172C211.309 180.601 234.152 182.532 258.3 183.885C261.355 184.057 264.43 184.218 267.527 184.37C289.334 185.442 312.132 186.04 335.608 186.111C337.143 186.114 338.68 186.117 340.22 186.117C341.761 186.117 343.298 186.117 344.832 186.111C368.309 186.04 391.11 185.442 412.917 184.37C416.014 184.218 419.089 184.057 422.141 183.885C446.292 182.535 469.135 180.604 490.225 178.172C493.339 177.814 496.413 177.445 499.449 177.064C525.325 173.825 548.314 169.82 567.533 165.218C570.711 164.456 573.789 163.677 576.761 162.886C610.562 153.85 630.444 142.798 630.444 130.861C630.444 118.924 612.219 108.812 581.001 100.001V100.005Z" fill="#FBC371"/>
<path d="M8.2258 68.7709C16.9394 75.8406 32.7874 82.3904 54.242 88.1263C57.2133 88.9208 60.2879 89.6991 63.4691 90.4581C66.3823 91.1557 69.3826 91.8404 72.467 92.5121C89.723 96.2618 109.602 99.5592 131.554 102.308C134.589 102.689 137.664 103.057 140.777 103.415C161.667 105.822 184.281 107.74 208.18 109.09C208.407 109.103 208.633 109.116 208.862 109.129C211.917 109.3 214.992 109.461 218.086 109.613C233.285 110.359 248.965 110.876 265.019 111.147C272.002 111.264 279.055 111.335 286.17 111.354C287.704 111.36 289.242 111.36 290.782 111.36C292.323 111.36 293.86 111.36 295.394 111.354C318.871 111.286 341.672 110.685 363.475 109.613C366.573 109.461 369.647 109.3 372.703 109.129C378.929 108.78 385.072 108.392 391.121 107.969C408.519 106.748 425.136 105.221 440.784 103.419C443.897 103.06 446.972 102.692 450.008 102.311C475.884 99.0716 498.876 95.0668 518.092 90.4613C521.273 89.6991 524.348 88.9207 527.316 88.1295C561.118 79.0961 580.999 68.041 580.999 56.1042C580.999 41.4835 551.17 28.187 502.47 18.3043C479.624 13.6665 452.62 9.78119 422.594 6.86158C397.132 4.38443 369.495 2.60489 340.374 1.64891C324.258 1.11925 307.686 0.844727 290.779 0.844727C260.456 0.844727 231.221 1.72965 203.746 3.37355C85.9863 10.4077 0.558594 31.3553 0.558594 56.101C0.558594 57.2475 0.742684 58.3876 1.10764 59.5179C2.12175 62.683 4.5343 65.7738 8.22903 68.7709H8.2258Z" fill="#FBC371"/>
<path d="M576.759 211.767V162.89C573.788 163.681 570.713 164.459 567.532 165.221V212.827C544.885 215.359 522.184 217.364 499.447 218.83V177.071C496.411 177.452 493.337 177.82 490.223 178.179V219.396C467.548 220.713 444.843 221.495 422.139 221.724V183.889C419.087 184.06 416.012 184.221 412.915 184.373V221.786C390.21 221.87 367.506 221.404 344.831 220.377V186.114C343.296 186.117 341.759 186.12 340.219 186.12C338.678 186.12 337.141 186.12 335.607 186.114V219.929C312.873 218.746 290.169 216.999 267.525 214.677V184.373C264.428 184.221 261.354 184.06 258.298 183.889V213.699C239.469 211.635 220.682 209.171 201.954 206.303C198.043 205.702 194.128 205.085 190.217 204.436V178.179C187.104 177.82 184.029 177.452 180.993 177.071V202.84C157.772 198.645 134.809 193.032 113.264 183.537C113.145 183.485 113.028 183.43 112.909 183.378V167.56C118.939 168.451 125.159 169.297 131.554 170.098C134.589 170.479 137.664 170.847 140.777 171.206C141.814 171.325 142.854 171.442 143.901 171.561C164.115 173.822 185.899 175.634 208.862 176.919C211.917 177.09 214.992 177.252 218.086 177.404C239.892 178.476 262.694 179.073 286.17 179.144C287.704 179.151 289.242 179.151 290.782 179.151C292.323 179.151 293.86 179.151 295.394 179.144C318.871 179.077 341.672 178.476 363.475 177.404C366.573 177.252 369.647 177.09 372.703 176.919C396.851 175.569 419.694 173.635 440.784 171.209C443.897 170.851 446.972 170.482 450.008 170.101C453.88 169.617 457.688 169.113 461.428 168.596C465.949 168.235 470.467 167.85 474.979 167.437C495.013 165.615 515.03 163.293 534.867 159.944C548.984 157.561 563.201 154.79 576.791 150.21C584.597 147.581 594.306 144.251 599.289 137.194C603.785 130.822 600.177 124.111 594.667 119.961C590.614 116.909 585.899 114.658 580.999 112.849V122.335C581.067 122.364 581.135 122.393 581.177 122.409C581.3 122.461 581.426 122.516 581.545 122.57C582.566 123.026 583.58 123.491 584.578 123.995C586.222 124.822 587.782 125.755 589.312 126.769C589.581 126.947 590.711 127.87 589.581 126.937C589.868 127.173 590.159 127.402 590.436 127.647C590.947 128.1 591.396 128.603 591.877 129.085C591.89 129.098 591.896 129.107 591.906 129.117C592.042 129.35 592.213 129.579 592.355 129.805C592.39 129.857 592.419 129.911 592.448 129.966C592.413 129.902 592.442 130.005 592.562 130.234C592.516 130.118 592.484 130.041 592.465 129.995C592.552 130.17 592.623 130.351 592.72 130.519C592.658 130.409 592.604 130.315 592.562 130.234C592.584 130.299 592.61 130.373 592.639 130.461C592.665 130.535 592.688 130.596 592.707 130.651C592.704 130.7 592.7 130.761 592.7 130.832C592.71 130.8 592.723 130.767 592.736 130.735C592.736 130.738 592.742 130.742 592.742 130.748C592.723 130.832 592.707 130.922 592.694 131.006C592.684 131.139 592.658 131.245 592.636 131.316C592.623 131.352 592.613 131.391 592.597 131.426C592.542 131.549 592.51 131.636 592.481 131.697C592.442 131.778 592.403 131.859 592.355 131.933C592.209 132.153 592.045 132.382 591.909 132.615C591.857 132.676 591.806 132.737 591.748 132.796C591.286 133.257 590.837 133.719 590.352 134.158C590.107 134.385 589.839 134.585 589.581 134.798C590.737 133.845 589.396 134.908 589.109 135.108C587.585 136.154 585.96 137.055 584.303 137.879C583.344 138.357 582.369 138.796 581.39 139.232C581.316 139.265 581.245 139.297 581.171 139.329C581.087 139.365 580.809 139.481 580.686 139.529C580.072 139.778 579.459 140.024 578.842 140.259C576.365 141.209 573.852 142.058 571.32 142.846C565.274 144.729 559.118 146.266 552.934 147.633C566.611 142.165 575.712 136.206 579.291 129.928C562.006 132.595 544.682 134.956 527.316 137.01V88.1326C524.348 88.9271 521.273 89.7055 518.092 90.4644V138.073C495.446 140.605 472.744 142.607 450.008 144.074V102.314C446.972 102.695 443.897 103.063 440.784 103.422V144.639C418.108 145.956 395.407 146.735 372.703 146.967V109.132C369.647 109.303 366.569 109.465 363.475 109.616V147.029C340.771 147.113 318.07 146.648 295.394 145.621V111.357C293.86 111.364 292.323 111.364 290.782 111.364C289.242 111.364 287.704 111.364 286.17 111.357V145.172C263.437 143.99 240.732 142.246 218.086 139.92V109.616C214.992 109.465 211.914 109.303 208.862 109.132V138.942C190.033 136.878 171.246 134.417 152.517 131.546C148.606 130.945 144.692 130.328 140.781 129.676V103.419C137.667 103.06 134.593 102.692 131.557 102.311V128.08C108.336 123.885 85.3727 118.272 63.8276 108.78C63.7081 108.728 63.5918 108.676 63.4724 108.622V90.4644C60.2911 89.7022 57.2165 88.9239 54.2452 88.1326V104.226C36.8406 95.3218 20.7666 83.5142 8.22903 68.7773C4.5343 65.7801 2.12175 62.6861 1.10764 59.5243C0.923545 59.2595 0.742684 58.9946 0.558594 58.7266V123.898C0.558594 135.328 18.7836 145.944 50.0014 154.757V198.661C50.0014 199.775 50.1758 200.883 50.515 201.981C49.4007 202.404 48.2962 202.847 47.1949 203.302C40.6839 206.018 31.8604 209.955 29.913 217.526C27.9849 225.022 34.9286 230.583 40.7162 233.726C50.7992 239.2 62.3678 242.123 73.4714 244.665C90.6047 248.589 108.038 251.172 125.469 253.336C173.591 259.305 222.204 261.549 270.665 262.101C322.313 262.689 374.091 261.278 425.546 256.595C445.58 254.77 465.597 252.448 485.434 249.102C496.04 247.313 506.704 245.301 517.117 242.468C535.871 239.72 552.811 236.542 567.535 233.015C570.148 232.392 572.689 231.752 575.163 231.106C575.699 230.964 576.232 230.825 576.762 230.683C578.202 230.296 579.617 229.908 581.006 229.517C606.656 222.277 623.534 213.815 628.737 204.691C611.455 207.355 594.128 209.72 576.762 211.77L576.759 211.767ZM592.697 131.265C592.697 131.265 592.681 131.291 592.675 131.303C592.684 131.287 592.691 131.274 592.697 131.265ZM592.458 131.743C592.413 131.849 592.423 131.823 592.458 131.743V131.743ZM581.093 139.361C581.093 139.361 581.057 139.374 581.041 139.381C581.061 139.374 581.077 139.368 581.093 139.361ZM580.983 139.407C580.954 139.42 580.922 139.433 580.89 139.445C580.925 139.433 580.954 139.42 580.983 139.407ZM103.682 166.135V178.983C93.7956 173.925 84.3392 167.934 75.716 160.997C84.4231 162.825 93.7698 164.543 103.682 166.135ZM38.4167 219.328C38.3456 218.837 38.4522 219.076 38.4167 219.328V219.328ZM38.3036 219.887C38.3295 219.312 38.3521 219.541 38.3036 219.887V219.887ZM159.251 248.182C139.854 246.473 120.476 244.316 101.253 241.176C87.1296 238.874 72.9417 236.171 59.2706 231.872C56.7579 231.081 54.2678 230.231 51.8133 229.278C51.2545 229.062 50.7023 228.839 50.15 228.616C50.0886 228.59 50.037 228.571 49.995 228.552C49.7625 228.455 49.5299 228.355 49.3006 228.251C48.3317 227.815 47.3693 227.373 46.4198 226.895C44.7468 226.049 43.1352 225.106 41.5882 224.05C41.4332 223.943 41.2814 223.833 41.178 223.749C41.2394 223.801 41.3201 223.866 41.4202 223.949C41.3395 223.882 41.2523 223.811 41.1716 223.743C40.9972 223.61 40.939 223.555 41.1457 223.72C40.9519 223.562 40.7549 223.404 40.5676 223.236C40.0218 222.754 39.5632 222.202 39.0432 221.695C38.9237 221.485 38.7816 221.279 38.6492 221.078C38.4974 220.852 38.4167 220.587 38.2778 220.355C38.3262 220.436 38.3714 220.51 38.4102 220.574C38.3811 220.5 38.3585 220.423 38.3424 220.352C38.3262 220.255 38.3101 220.177 38.2939 220.119C38.2972 220.087 38.3004 220.055 38.3004 220.019C38.365 219.803 38.4393 219.531 38.4296 219.409C38.5426 219.218 38.6298 218.989 38.7332 218.811C38.7848 218.724 38.8365 218.643 38.8946 218.559C38.7913 218.682 38.8656 218.511 39.124 218.223C39.1401 218.201 39.153 218.175 39.1692 218.155C39.153 218.178 39.1401 218.201 39.1272 218.22C39.1659 218.181 39.2047 218.136 39.2499 218.091C39.7408 217.603 40.2156 217.119 40.7291 216.657C40.9875 216.421 42.0694 215.643 40.9067 216.482C41.2361 216.247 41.5559 216.008 41.8885 215.778C43.4582 214.703 45.1279 213.779 46.8299 212.94C47.7439 212.487 48.6741 212.068 49.6042 211.654C49.8335 211.551 49.9562 211.496 50.0176 211.467C50.0757 211.444 50.2081 211.396 50.473 211.289C51.148 211.024 51.8197 210.753 52.498 210.495C53.4895 210.12 54.4874 209.758 55.4886 209.41C63.5757 217.216 80.2956 224.431 103.678 230.683C106.646 231.475 109.721 232.253 112.902 233.015C132.119 237.617 155.111 241.625 180.987 244.865C184.023 245.246 187.097 245.614 190.211 245.973C211.3 248.401 234.144 250.333 258.292 251.683C261.347 251.854 264.422 252.015 267.519 252.167C279.146 252.739 291.057 253.175 303.2 253.472C255.182 253.83 207.082 252.393 159.245 248.182H159.251Z" fill="#EE754D"/>
<path d="M553.958 315.975C550.987 316.77 547.912 317.545 544.734 318.31V365.915C522.088 368.447 499.387 370.453 476.65 371.919V330.25C477.586 330.102 478.516 329.953 479.44 329.801C493.563 327.499 506.518 324.941 518.093 322.17C521.274 321.407 524.349 320.629 527.317 319.835C555.347 312.342 573.808 303.463 579.292 293.839C562.01 296.507 544.682 298.868 527.317 300.922V252.044C524.349 252.839 521.274 253.614 518.093 254.376V301.981C495.446 304.513 472.745 306.519 450.008 307.985V266.222C446.972 266.603 443.898 266.972 440.784 267.33V308.547C418.109 309.865 395.408 310.643 372.703 310.876V273.04C369.648 273.211 366.57 273.373 363.476 273.525V310.94C340.772 311.021 318.07 310.559 295.395 309.532V275.269C293.861 275.269 292.323 275.275 290.783 275.275C289.242 275.275 287.705 275.272 286.171 275.269V309.083C263.437 307.901 240.733 306.157 218.086 303.832V273.525C214.992 273.373 211.915 273.211 208.863 273.04V302.85C190.034 300.786 171.247 298.325 152.518 295.454C148.607 294.853 144.692 294.236 140.781 293.584V267.327C137.668 266.968 134.593 266.6 131.557 266.219V291.988C108.336 287.793 85.3733 282.18 63.8283 272.685C63.7088 272.633 63.5925 272.581 63.473 272.53V254.373C60.2918 253.61 57.2172 252.832 54.2459 252.041V268.134C36.8413 259.23 20.7672 247.426 8.23294 232.689C4.53498 229.688 2.12243 226.598 1.10831 223.429C0.924222 223.164 0.743361 222.9 0.5625 222.635V287.809C0.5625 296.077 10.1061 303.922 27.204 310.966V351.737C27.204 363.674 47.0857 374.729 80.8873 383.762C83.8554 384.557 86.93 385.332 90.1113 386.094C109.328 390.697 132.32 394.705 158.196 397.944C161.232 398.322 164.309 398.69 167.42 399.048C188.509 401.477 211.353 403.412 235.504 404.762C238.559 404.933 241.634 405.094 244.728 405.246C266.535 406.318 289.333 406.919 312.809 406.987C314.346 406.99 315.884 406.993 317.424 406.993C318.965 406.993 320.502 406.99 322.036 406.987C345.516 406.919 368.314 406.318 390.121 405.246C393.215 405.094 396.293 404.933 399.345 404.762C423.496 403.412 446.339 401.477 467.429 399.048C470.542 398.693 473.617 398.322 476.653 397.944C502.529 394.705 525.518 390.7 544.737 386.094C547.915 385.332 550.99 384.554 553.961 383.762C581.995 376.27 600.452 367.388 605.936 357.767C588.658 360.435 571.327 362.796 553.961 364.85V315.972L553.958 315.975ZM80.8841 332.069C75.1676 329.146 69.5932 325.906 64.2385 322.35C69.5157 323.604 75.0675 324.812 80.8841 325.971V332.069ZM158.192 355.926C134.971 351.727 112.008 346.118 90.4665 336.622C90.347 336.571 90.2275 336.519 90.108 336.464V327.731C102.865 330.056 116.737 332.159 131.551 334.016C134.587 334.394 137.662 334.765 140.775 335.124C146.456 335.776 152.266 336.393 158.192 336.974V355.923V355.926ZM235.501 366.784C216.672 364.72 197.885 362.256 179.153 359.388C175.242 358.788 171.327 358.171 167.416 357.518V337.84C180.713 339.028 194.555 340.033 208.859 340.834C211.915 341.005 214.989 341.166 218.083 341.318C223.822 341.599 229.629 341.848 235.501 342.064V366.784ZM312.806 373.014C290.072 371.832 267.371 370.085 244.725 367.763V342.374C258.251 342.785 272.086 343.017 286.168 343.059C287.702 343.062 289.239 343.066 290.78 343.066C292.32 343.066 293.858 343.062 295.392 343.059C301.241 343.043 307.047 342.991 312.806 342.911V373.014ZM390.117 374.871C367.413 374.955 344.712 374.49 322.033 373.463V342.749C336.176 342.462 350.015 341.98 363.473 341.318C366.57 341.166 369.645 341.005 372.7 340.834C378.581 340.504 384.391 340.143 390.114 339.745V374.871H390.117ZM467.426 372.478C444.75 373.792 422.046 374.574 399.341 374.807V339.07C413.765 337.963 427.617 336.639 440.784 335.124C443.898 334.762 446.972 334.397 450.008 334.016C455.97 333.267 461.78 332.482 467.426 331.658V372.481V372.478Z" fill="#EE754D"/>
<path d="M40.719 69.8013C50.802 75.2756 62.3706 78.1984 73.4742 80.7401C77.072 81.5637 80.686 82.3291 84.3097 83.0461C97.9324 85.7332 111.704 87.7065 125.472 89.4118C157.568 93.3939 189.881 95.7161 222.223 96.9886C238.371 97.6216 254.529 97.993 270.668 98.1771C273.897 98.2158 277.13 98.2417 280.363 98.2643C322.684 98.5388 365.074 97.4116 407.282 94.1949C413.38 93.7298 419.468 93.2228 425.552 92.6705C445.586 90.8457 465.603 88.5268 485.44 85.1777C499.557 82.7942 513.774 80.0232 527.367 75.4435C535.17 72.8146 544.879 69.488 549.862 62.428C554.358 56.0559 550.75 49.3446 545.237 45.1913C537.399 39.2875 527.077 36.3872 517.749 33.8584C508.638 31.3877 499.385 29.437 490.081 27.7899C483.583 26.6401 477.056 25.6357 470.535 24.7056C448.05 21.4985 425.426 19.2184 402.754 17.6003C378.729 15.8821 354.645 14.9068 330.604 14.3545C328.44 14.3061 326.279 14.2608 324.115 14.2189C313.008 14.0089 301.898 13.9056 290.788 13.9023C253.78 13.912 216.706 14.91 179.769 17.568C166.601 18.5175 153.45 19.6737 140.328 21.0754C121.561 23.0778 102.796 25.5453 84.2677 29.1722C71.7399 31.6267 59.0215 34.4462 47.2042 39.3779C40.6932 42.094 31.8697 46.0342 29.9222 53.6013C27.9941 61.0974 34.9379 66.6588 40.7255 69.8013H40.719ZM41.1615 59.8184C40.9386 59.6408 40.9903 59.686 41.1615 59.8184V59.8184ZM41.1711 59.8249C41.2357 59.8765 41.3165 59.9411 41.4198 60.0316C41.3391 59.9637 41.2519 59.8927 41.1711 59.8249ZM543.038 56.9376C542.963 57.1055 542.983 57.057 543.038 56.9376V56.9376ZM543.231 56.5403C543.241 56.5242 543.251 56.5112 543.257 56.5015C543.247 56.5145 543.238 56.5274 543.231 56.5403ZM38.4162 55.4067C38.3452 54.9158 38.4518 55.1548 38.4162 55.4067V55.4067ZM38.3032 55.9654C38.329 55.3905 38.3517 55.6199 38.3032 55.9654V55.9654ZM38.2741 56.4337C38.3226 56.5145 38.3678 56.5887 38.4066 56.6533C38.3775 56.5791 38.3549 56.5015 38.3387 56.4305C38.3226 56.3336 38.3064 56.2561 38.2903 56.198C38.2935 56.1689 38.2968 56.1334 38.2968 56.1011C38.3613 55.8847 38.4356 55.6102 38.4259 55.4907C38.5357 55.3001 38.6262 55.0708 38.7295 54.8932C38.778 54.806 38.8329 54.7252 38.891 54.6413C38.7877 54.764 38.8619 54.5928 39.1203 54.3054C39.1332 54.2828 39.1494 54.2602 39.1655 54.2343C39.1494 54.2569 39.1365 54.2795 39.1203 54.3022C39.1591 54.2602 39.2011 54.2182 39.2463 54.1697C39.7372 53.6821 40.2119 53.1976 40.7255 52.7325C40.9838 52.4968 42.0658 51.7184 40.9031 52.5614C41.2325 52.3256 41.5522 52.0834 41.8849 51.8541C43.4545 50.7786 45.1243 49.8549 46.8263 49.0152C47.7403 48.563 48.6704 48.1432 49.6006 47.7298C49.8234 47.6329 49.9461 47.5748 50.0075 47.5457C50.0656 47.5231 50.198 47.4747 50.4693 47.3681C51.1443 47.1 51.8161 46.832 52.4943 46.5736C57.8491 44.5454 63.3589 42.9402 68.901 41.5127C84.2806 37.5531 100.009 34.9436 115.725 32.7571C131.682 30.5383 147.711 28.8008 163.782 27.4346C193.107 24.9413 222.562 23.6882 251.932 23.0326C264.877 22.7452 277.824 22.6063 290.772 22.603C298.239 22.6063 305.713 22.6483 313.183 22.7387C338.4 23.0391 363.624 23.8626 388.799 25.4129C405.151 26.4205 421.48 27.735 437.767 29.4144C452.126 30.8936 466.469 32.6602 480.715 35.0082C484.519 35.6315 488.317 36.3 492.109 37.0138C504.802 39.407 517.659 42.1586 529.735 46.8384C530.293 47.0548 530.846 47.2776 531.398 47.5005C531.469 47.5296 531.605 47.5877 531.689 47.6232C531.824 47.6814 531.96 47.7395 532.092 47.8008C533.113 48.2562 534.127 48.7213 535.125 49.2251C536.769 50.0551 538.329 50.9853 539.86 52.0026C540.124 52.1803 541.258 53.1039 540.124 52.1706C540.412 52.4063 540.703 52.6389 540.98 52.8843C541.494 53.3365 541.94 53.8403 542.421 54.3215C542.434 54.3344 542.443 54.3441 542.453 54.3538C542.585 54.5864 542.753 54.8189 542.899 55.0417C542.931 55.0934 542.96 55.1451 542.986 55.1968C542.986 55.2032 542.996 55.2194 543.009 55.2388C543.092 55.4099 543.167 55.5908 543.264 55.7555C543.199 55.6457 543.147 55.552 543.102 55.4713C543.125 55.5359 543.154 55.6102 543.183 55.6974C543.209 55.7716 543.228 55.833 543.247 55.8879C543.244 55.9364 543.244 55.9977 543.244 56.072C543.257 56.0397 543.267 56.0074 543.28 55.9719C543.28 55.9783 543.286 55.9816 543.286 55.9848C543.264 56.0752 543.248 56.1689 543.235 56.2626C543.225 56.3788 543.202 56.4693 543.183 56.5338C543.17 56.5758 543.157 56.6178 543.141 56.6566C543.096 56.7664 543.063 56.8471 543.038 56.9053C542.999 56.9957 542.954 57.0829 542.902 57.1604C542.753 57.38 542.592 57.6093 542.459 57.8419C542.408 57.9065 542.353 57.9678 542.295 58.0259C541.833 58.4878 541.384 58.9496 540.9 59.3921C540.651 59.6182 540.383 59.8184 540.124 60.0316C541.281 59.0788 539.944 60.1446 539.656 60.3416C538.132 61.388 536.507 62.2923 534.85 63.1127C533.891 63.5906 532.913 64.0299 531.937 64.4691C531.873 64.4982 531.802 64.5273 531.731 64.5563C531.676 64.5789 531.362 64.7113 531.23 64.763C530.616 65.0085 530.006 65.2539 529.386 65.4897C526.909 66.4392 524.396 67.2886 521.864 68.0766C515.54 70.0467 509.104 71.6357 502.635 73.0471C486.076 76.6643 469.263 79.1415 452.442 81.1503C441.223 82.4938 429.977 83.6371 418.715 84.6093C382.698 87.7227 346.5 89.0791 310.376 89.4796C304.004 89.5507 297.632 89.5894 291.257 89.5991C271.507 89.6217 251.748 89.3278 232.008 88.6463C207.712 87.8099 183.438 86.3888 159.228 84.2572C139.831 82.5488 120.453 80.3913 101.23 77.2521C98.6462 76.8323 96.0592 76.3962 93.4722 75.9409C81.9294 73.9062 70.4157 71.4581 59.2443 67.9475C56.7316 67.1562 54.2416 66.3036 51.787 65.354C51.2283 65.1377 50.676 64.9148 50.1238 64.692C50.0656 64.6694 50.014 64.6467 49.972 64.6306C49.7394 64.5305 49.5069 64.4304 49.2744 64.327C48.3055 63.891 47.343 63.4485 46.3935 62.9706C44.7205 62.1244 43.1089 61.1813 41.5619 60.1252C41.3972 60.0122 41.2454 59.8992 41.1356 59.8152C40.9354 59.6505 40.7319 59.4858 40.5381 59.3146C39.9923 58.8334 39.5337 58.2779 39.0137 57.774C38.8942 57.5673 38.7521 57.3574 38.6197 57.1572C38.4679 56.9311 38.3872 56.6663 38.2483 56.4337H38.2741Z" fill="#EE754D"/>
<path d="M90.1067 327.731C86.9643 327.156 83.8896 326.571 80.8828 325.971V383.765C83.8509 384.56 86.9255 385.335 90.1067 386.097V327.728V327.731Z" fill="#B2534C"/>
<path d="M167.415 337.843C164.312 337.562 161.237 337.275 158.191 336.978V397.95C161.227 398.328 164.305 398.696 167.415 399.055V337.843Z" fill="#B2534C"/>
<path d="M244.724 342.374C241.63 342.281 238.558 342.177 235.5 342.064V404.765C238.555 404.936 241.63 405.098 244.724 405.25V342.374Z" fill="#B2534C"/>
<path d="M322.036 342.749C318.974 342.81 315.899 342.865 312.809 342.911V406.99C314.346 406.993 315.883 406.997 317.424 406.997C318.964 406.997 320.502 406.993 322.036 406.99V342.749Z" fill="#B2534C"/>
<path d="M399.341 339.071C396.289 339.307 393.218 339.529 390.117 339.746V405.25C393.211 405.098 396.289 404.936 399.341 404.765V339.071Z" fill="#B2534C"/>
<path d="M63.4693 254.376C60.2881 253.614 57.2135 252.836 54.2422 252.044V319.835C57.2135 320.629 60.2881 321.408 63.4693 322.17V254.376Z" fill="#B2534C"/>
<path d="M140.779 267.33C137.665 266.971 134.591 266.603 131.555 266.222V334.016C134.591 334.394 137.665 334.765 140.779 335.124V267.33Z" fill="#B2534C"/>
<path d="M208.859 340.834C211.915 341.005 214.989 341.167 218.083 341.319V273.525C214.989 273.373 211.911 273.212 208.859 273.041V340.831V340.834Z" fill="#B2534C"/>
<path d="M286.168 343.059C287.702 343.062 289.239 343.066 290.78 343.066C292.32 343.066 293.858 343.062 295.392 343.059V275.269C293.858 275.269 292.32 275.275 290.78 275.275C289.239 275.275 287.702 275.272 286.168 275.269V343.059Z" fill="#B2534C"/>
<path d="M363.477 341.322C366.574 341.17 369.648 341.009 372.704 340.837V273.047C369.648 273.218 366.571 273.38 363.477 273.531V341.325V341.322Z" fill="#B2534C"/>
<path d="M112.907 167.56C109.781 167.098 106.707 166.623 103.684 166.135V230.683C106.652 231.474 109.726 232.253 112.907 233.015V167.56Z" fill="#B2534C"/>
<path d="M180.992 244.861C184.028 245.242 187.103 245.61 190.216 245.969V178.175C187.103 177.817 184.028 177.448 180.992 177.067V244.861Z" fill="#B2534C"/>
<path d="M258.297 251.683C261.352 251.854 264.427 252.015 267.524 252.167V184.377C264.427 184.225 261.352 184.063 258.297 183.892V251.683Z" fill="#B2534C"/>
<path d="M335.605 253.904C337.14 253.911 338.677 253.911 340.217 253.911C341.758 253.911 343.295 253.911 344.829 253.904V186.114C343.295 186.117 341.758 186.12 340.217 186.12C338.677 186.12 337.14 186.12 335.605 186.114V253.904Z" fill="#B2534C"/>
<path d="M412.918 252.167C416.015 252.015 419.09 251.854 422.142 251.683V183.892C419.09 184.063 416.015 184.225 412.918 184.377V252.167Z" fill="#B2534C"/>
<path d="M54.2422 155.917C57.2135 156.708 60.2881 157.486 63.4693 158.249V90.4549C60.2881 89.6927 57.2135 88.9143 54.2422 88.123V155.917Z" fill="#B2534C"/>
<path d="M140.779 171.206V103.412C137.665 103.053 134.591 102.685 131.555 102.304V170.095C134.591 170.476 137.665 170.844 140.779 171.203V171.206Z" fill="#B2534C"/>
<path d="M218.083 109.609C214.989 109.458 211.911 109.296 208.859 109.125V176.919C211.915 177.09 214.989 177.251 218.083 177.403V109.609Z" fill="#B2534C"/>
<path d="M295.392 111.351C293.858 111.357 292.32 111.357 290.78 111.357C289.239 111.357 287.702 111.357 286.168 111.351V179.141C287.702 179.148 289.239 179.148 290.78 179.148C292.32 179.148 293.858 179.148 295.392 179.141V111.351Z" fill="#B2534C"/>
<path d="M372.704 109.125C369.648 109.296 366.571 109.458 363.477 109.609V177.403C366.574 177.251 369.648 177.09 372.704 176.919V109.125Z" fill="#B2534C"/>
<path d="M290.782 13.9053C301.892 13.9085 313.002 14.0119 324.109 14.2218C329.518 10.0168 334.944 5.82467 340.38 1.64549C324.264 1.11583 307.692 0.841309 290.785 0.841309C260.462 0.841309 231.227 1.72624 203.752 3.37013C195.701 8.02084 187.701 12.7523 179.766 17.5709C216.703 14.9129 253.776 13.915 290.785 13.9053H290.782Z" fill="#FCCF91"/>
<path d="M131.555 102.307C134.591 102.688 137.665 103.057 140.779 103.415C161.668 105.821 184.282 107.74 208.182 109.09C212.845 105.036 217.525 101.003 222.218 96.9913C189.876 95.722 157.563 93.3967 125.467 89.4145C111.699 87.706 97.9275 85.7327 84.3048 83.0488C80.3291 86.1654 76.3792 89.3176 72.4648 92.5117C89.7209 96.2614 109.599 99.5589 131.551 102.307H131.555Z" fill="#FCCF91"/>
<path d="M159.253 84.2602C183.459 86.3917 207.733 87.8128 232.033 88.6493C258.632 66.1676 285.742 44.2544 313.194 22.7416C305.724 22.6544 298.251 22.6092 290.784 22.606C277.836 22.6124 264.888 22.7481 251.944 23.0355C222.573 23.6911 193.119 24.9442 163.794 27.4375C139.655 42.6266 116.143 58.7006 93.5 75.9438C96.0837 76.3992 98.6707 76.8352 101.258 77.255C120.481 80.391 139.859 82.5484 159.256 84.2602H159.253Z" fill="#FCCF91"/>
<path d="M470.527 24.7082C477.048 25.6384 483.575 26.6396 490.073 27.7926C494.197 24.6178 498.331 21.456 502.471 18.3006C479.625 13.6628 452.622 9.77752 422.596 6.85791C415.946 10.3879 409.325 13.9664 402.746 17.603C425.418 19.2243 448.042 21.5012 470.527 24.7082Z" fill="#FCCF91"/>
<path d="M291.281 89.6021C297.657 89.5956 304.029 89.5536 310.401 89.4826C346.525 89.0789 382.723 87.7256 418.74 84.6122C439.1 67.7244 459.802 51.2305 480.73 35.0079C466.484 32.66 452.141 30.8966 437.782 29.4141C421.491 27.7347 405.165 26.4203 388.814 25.4126C354.857 44.755 322.018 65.7672 291.284 89.6021H291.281Z" fill="#FCCF91"/>
<path d="M280.357 98.2673C275.177 102.472 270.061 106.761 265.02 111.147C272.002 111.263 279.056 111.335 286.171 111.354C287.705 111.36 289.242 111.36 290.783 111.36C292.323 111.36 293.86 111.36 295.394 111.354C318.871 111.286 341.672 110.685 363.476 109.613C366.573 109.461 369.648 109.3 372.703 109.129C378.93 108.78 385.072 108.392 391.122 107.969C396.476 103.348 401.863 98.7582 407.273 94.2012C365.068 97.4179 322.679 98.5451 280.354 98.2705L280.357 98.2673Z" fill="#FCCF91"/>
</g>
<defs>
<clipPath id="clip0_465_225087">
<rect width="629.884" height="406.159" fill="white" transform="translate(0.558594 0.841309)"/>
</clipPath>
</defs>
</svg>
