<svg width="82" height="80" viewBox="0 0 82 80" fill="none" xmlns="http://www.w3.org/2000/svg">
<g filter="url(#filter0_d_641_10420)">
<rect x="12.35" y="8.1625" width="57.3" height="55.4875" rx="27.7437" stroke="#F46C31" stroke-width="0.7" shape-rendering="crispEdges"/>
<path d="M53.1299 35.7347V37.9732C53.1299 41.6797 47.6199 44.683 40.8267 44.683C34.1531 44.683 28.7192 41.7849 28.5289 38.1707L28.5234 37.9714V35.7365C28.5234 39.4431 34.0334 42.4482 40.8267 42.4482C47.6217 42.4482 53.1299 39.4413 53.1299 35.7347ZM40.8267 26.79C47.6217 26.79 53.1299 29.7934 53.1299 33.4999C53.1299 37.2065 47.6199 40.2116 40.8267 40.2116C34.0316 40.2098 28.5234 37.2047 28.5234 33.4963C28.5234 29.7879 34.0334 26.79 40.8267 26.79Z" fill="#F46C31"/>
</g>
<defs>
<filter id="filter0_d_641_10420" x="0.6" y="0.4125" width="80.8" height="78.9875" filterUnits="userSpaceOnUse" color-interpolation-filters="sRGB">
<feFlood flood-opacity="0" result="BackgroundImageFix"/>
<feColorMatrix in="SourceAlpha" type="matrix" values="0 0 0 0 0 0 0 0 0 0 0 0 0 0 0 0 0 0 127 0" result="hardAlpha"/>
<feOffset dy="4"/>
<feGaussianBlur stdDeviation="5.7"/>
<feComposite in2="hardAlpha" operator="out"/>
<feColorMatrix type="matrix" values="0 0 0 0 0 0 0 0 0 0 0 0 0 0 0 0 0 0 0.05 0"/>
<feBlend mode="normal" in2="BackgroundImageFix" result="effect1_dropShadow_641_10420"/>
<feBlend mode="normal" in="SourceGraphic" in2="effect1_dropShadow_641_10420" result="shape"/>
</filter>
</defs>
</svg>
