<svg width="81" height="81" viewBox="0 0 81 81" fill="none" xmlns="http://www.w3.org/2000/svg">
<g clip-path="url(#clip0_462_221241)">
<mask id="mask0_462_221241" style="mask-type:luminance" maskUnits="userSpaceOnUse" x="1" y="1" width="79" height="79">
<path d="M79.6925 40.3404C79.6925 18.6467 62.1063 1.06055 40.4127 1.06055C18.719 1.06055 1.13281 18.6467 1.13281 40.3404C1.13281 62.034 18.719 79.6202 40.4127 79.6202C62.1063 79.6202 79.6925 62.034 79.6925 40.3404Z" fill="white"/>
</mask>
<g mask="url(#mask0_462_221241)">
<path d="M79.6925 40.3404C79.6925 18.6467 62.1063 1.06055 40.4127 1.06055C18.719 1.06055 1.13281 18.6467 1.13281 40.3404C1.13281 62.034 18.719 79.6202 40.4127 79.6202C62.1063 79.6202 79.6925 62.034 79.6925 40.3404Z" fill="#3D1909"/>
<path d="M15.3553 35.812L9.86328 102.533H65.7761L71.268 35.812H15.3553ZM28.3256 45.0431C26.7481 45.0431 25.4628 43.7578 25.4628 42.1803C25.4628 40.6028 26.7481 39.3174 28.3256 39.3174C29.9031 39.3174 31.1884 40.6028 31.1884 42.1803C31.2176 43.7578 29.9323 45.0431 28.3256 45.0431ZM58.5606 45.0431C56.9831 45.0431 55.6977 43.7578 55.6977 42.1803C55.6977 40.6028 56.9831 39.3174 58.5606 39.3174C60.138 39.3174 61.4234 40.6028 61.4234 42.1803C61.4526 43.7578 60.1673 45.0431 58.5606 45.0431Z" fill="#3D1909" stroke="#F46C31" stroke-width="1.3436" stroke-miterlimit="10" stroke-linecap="round" stroke-linejoin="round"/>
<path d="M31.2178 42.1509C31.2178 43.7284 29.9325 45.0137 28.355 45.0137C26.7775 45.0137 25.4922 43.7284 25.4922 42.1509C25.4922 40.5734 26.7775 39.2881 28.355 39.2881C29.9325 39.2881 31.2178 40.5734 31.2178 42.1509Z" stroke="#F46C31" stroke-width="1.3436" stroke-miterlimit="10" stroke-linecap="round" stroke-linejoin="round"/>
<path d="M61.4483 42.1509C61.4483 43.7284 60.1629 45.0137 58.5854 45.0137C57.008 45.0137 55.7227 43.7284 55.7227 42.1509C55.7227 40.5734 57.008 39.2881 58.5854 39.2881C60.1629 39.2881 61.4483 40.5734 61.4483 42.1509Z" stroke="#F46C31" stroke-width="1.3436" stroke-miterlimit="10" stroke-linecap="round" stroke-linejoin="round"/>
<path d="M81.5233 102.504L73.3438 97.0122V35.812H76.0021L81.5233 102.504Z" fill="#3D1909" stroke="#F46C31" stroke-width="1.3436" stroke-miterlimit="10" stroke-linecap="round" stroke-linejoin="round"/>
<path opacity="0.3" d="M72.6671 36.4839V96.6698L66.5625 101.101L71.8836 36.4839H72.6671Z" fill="#FBC4AD" stroke="#F46C31" stroke-width="1.3436"/>
<path d="M58.5592 42.151V33.6502C58.5592 25.3246 51.7819 18.5181 43.4563 18.5181C35.1308 18.5181 28.3242 25.3246 28.3242 33.6502V42.1802" stroke="#F46C31" stroke-width="1.3436" stroke-miterlimit="10" stroke-linecap="round" stroke-linejoin="round"/>
<path d="M33 35.8119V33.6502C33 29.502 34.6944 25.7043 37.4403 22.9584C40.1863 20.2124 43.9547 18.5181 48.1321 18.5181C56.4284 18.5181 63.235 25.3246 63.235 33.6502V35.8119" stroke="#F46C31" stroke-width="1.3436" stroke-miterlimit="10" stroke-linecap="round" stroke-linejoin="round"/>
<path d="M31.2178 42.1514C31.2178 43.7289 29.9325 45.0142 28.355 45.0142C26.7775 45.0142 25.4922 43.7289 25.4922 42.1514C25.4922 40.5739 26.7775 39.2886 28.355 39.2886C29.9325 39.2886 31.2178 40.5739 31.2178 42.1514Z" fill="#EC6B30" stroke="#F46C31" stroke-width="1.3436" stroke-miterlimit="10"/>
<path d="M61.4483 42.1509C61.4483 43.7284 60.1629 45.0137 58.5854 45.0137C57.008 45.0137 55.7227 43.7284 55.7227 42.1509C55.7227 40.5734 57.008 39.2881 58.5854 39.2881C60.1629 39.2881 61.4483 40.5734 61.4483 42.1509Z" fill="#EC6B30" stroke="#F46C31" stroke-width="1.3436" stroke-miterlimit="10"/>
<path d="M71.2656 35.812H73.3397" stroke="#F46C31" stroke-width="1.3436" stroke-miterlimit="10" stroke-linecap="round" stroke-linejoin="round"/>
</g>
</g>
<defs>
<clipPath id="clip0_462_221241">
<rect width="80" height="80" fill="white" transform="translate(0.5 0.515137)"/>
</clipPath>
</defs>
</svg>
