<svg width="81" height="82" viewBox="0 0 81 82" fill="none" xmlns="http://www.w3.org/2000/svg">
<g clip-path="url(#clip0_462_221578)">
<g clip-path="url(#clip1_462_221578)">
<mask id="mask0_462_221578" style="mask-type:luminance" maskUnits="userSpaceOnUse" x="0" y="0" width="81" height="81">
<path d="M80.1464 40.3681C80.1464 18.3927 62.3318 0.578125 40.3564 0.578125C18.381 0.578125 0.566406 18.3927 0.566406 40.3681C0.566406 62.3435 18.381 80.1581 40.3564 80.1581C62.3318 80.1581 80.1464 62.3435 80.1464 40.3681Z" fill="white"/>
</mask>
<g mask="url(#mask0_462_221578)">
<path d="M80.1464 40.3681C80.1464 18.3927 62.3318 0.578125 40.3564 0.578125C18.381 0.578125 0.566406 18.3927 0.566406 40.3681C0.566406 62.3435 18.381 80.1581 40.3564 80.1581C62.3318 80.1581 80.1464 62.3435 80.1464 40.3681Z" fill="#3D1909"/>
<path d="M69.6641 73.416H16.4844V81.6107H69.6641V73.416Z" fill="#3D1909" stroke="#F46C31" stroke-width="1.26304" stroke-miterlimit="10"/>
<path d="M21.1055 73.416V81.6107" stroke="#F46C31" stroke-width="1.26304" stroke-miterlimit="10"/>
<path d="M26.543 73.416V81.6107" stroke="#F46C31" stroke-width="1.26304" stroke-miterlimit="10"/>
<path d="M31.9805 73.416V81.6107" stroke="#F46C31" stroke-width="1.26304" stroke-miterlimit="10"/>
<path d="M37.418 73.416V81.6107" stroke="#F46C31" stroke-width="1.26304" stroke-miterlimit="10"/>
<path d="M42.875 73.416V81.6107" stroke="#F46C31" stroke-width="1.26304" stroke-miterlimit="10"/>
<path d="M48.3086 73.416V81.6107" stroke="#F46C31" stroke-width="1.26304" stroke-miterlimit="10"/>
<path d="M53.7539 73.416V81.6107" stroke="#F46C31" stroke-width="1.26304" stroke-miterlimit="10"/>
<path d="M59.1914 73.416V81.6107" stroke="#F46C31" stroke-width="1.26304" stroke-miterlimit="10"/>
<path d="M64.6289 73.6255V81.8202" stroke="#F46C31" stroke-width="1.26304" stroke-miterlimit="10"/>
<path d="M67.0352 65.2021H13.8555V73.3968H67.0352V65.2021Z" fill="#3D1909" stroke="#F46C31" stroke-width="1.26304" stroke-miterlimit="10"/>
<path d="M18.4727 65.2021V73.4159" stroke="#F46C31" stroke-width="1.26304" stroke-miterlimit="10"/>
<path d="M23.9102 65.2021V73.4159" stroke="#F46C31" stroke-width="1.26304" stroke-miterlimit="10"/>
<path d="M29.3477 65.2021V73.4159" stroke="#F46C31" stroke-width="1.26304" stroke-miterlimit="10"/>
<path d="M34.7891 65.2021V73.4159" stroke="#F46C31" stroke-width="1.26304" stroke-miterlimit="10"/>
<path d="M40.2266 65.2021V73.4159" stroke="#F46C31" stroke-width="1.26304" stroke-miterlimit="10"/>
<path d="M45.6797 65.2021V73.4159" stroke="#F46C31" stroke-width="1.26304" stroke-miterlimit="10"/>
<path d="M51.1172 65.2021V73.4159" stroke="#F46C31" stroke-width="1.26304" stroke-miterlimit="10"/>
<path d="M56.5547 65.2021V73.4159" stroke="#F46C31" stroke-width="1.26304" stroke-miterlimit="10"/>
<path d="M61.9961 65.4106V73.6244" stroke="#F46C31" stroke-width="1.26304" stroke-miterlimit="10"/>
<path d="M69.6641 57.0083H16.4844V65.203H69.6641V57.0083Z" fill="#3D1909" stroke="#F46C31" stroke-width="1.26304" stroke-miterlimit="10"/>
<path opacity="0.3" d="M45.0801 57.0083H16.4844V65.203H45.0801V57.0083Z" fill="#FBC4AD"/>
<path d="M21.1055 57.0083V65.203" stroke="#F46C31" stroke-width="1.26304" stroke-miterlimit="10"/>
<path d="M26.543 57.0083V65.203" stroke="#F46C31" stroke-width="1.26304" stroke-miterlimit="10"/>
<path d="M31.9805 57.0083V65.203" stroke="#F46C31" stroke-width="1.26304" stroke-miterlimit="10"/>
<path d="M37.418 57.0083V65.203" stroke="#F46C31" stroke-width="1.26304" stroke-miterlimit="10"/>
<path d="M42.875 57.0083V65.203" stroke="#F46C31" stroke-width="1.26304" stroke-miterlimit="10"/>
<path d="M48.3086 57.0083V65.203" stroke="#F46C31" stroke-width="1.26304" stroke-miterlimit="10"/>
<path d="M53.7539 57.0083V65.203" stroke="#F46C31" stroke-width="1.26304" stroke-miterlimit="10"/>
<path d="M59.1914 57.0083V65.203" stroke="#F46C31" stroke-width="1.26304" stroke-miterlimit="10"/>
<path d="M64.6289 57.2178V65.4125" stroke="#F46C31" stroke-width="1.26304" stroke-miterlimit="10"/>
<path opacity="0.3" d="M45.6797 65.2026L67.0314 73.4164V65.2026H45.6797Z" fill="#FBC4AD"/>
<path opacity="0.3" d="M48.3008 73.416L69.6526 81.6107V73.416H48.3008Z" fill="#FBC4AD"/>
<path d="M63.345 34.5729C63.345 46.1329 54.599 55.6394 43.3812 56.8753C32.1444 55.6585 23.3984 46.1329 23.3984 34.5729C23.3984 23.0129 32.1444 13.4873 43.3812 12.2705C54.599 13.5064 63.345 23.0129 63.345 34.5729Z" fill="#3D1909" stroke="#F46C31" stroke-width="1.26304" stroke-miterlimit="10"/>
<path d="M68.2694 34.5726C68.2694 46.9692 58.2304 57.0082 45.8339 57.0082C44.9973 57.0082 44.1797 56.9701 43.3812 56.8751C32.1444 55.6582 23.3984 46.1326 23.3984 34.5726C23.3984 23.0127 32.1444 13.4871 43.3812 12.2703C44.1797 12.1752 44.9973 12.1372 45.8339 12.1372H45.8719C58.2495 12.1562 68.2694 22.1952 68.2694 34.5726Z" fill="#3D1909" stroke="#F46C31" stroke-width="1.26304" stroke-miterlimit="10"/>
<path d="M62.7172 34.5727C62.7172 43.8891 55.15 51.4563 45.8335 51.4563C45.4152 51.4563 45.0159 51.4373 44.5977 51.4183C53.3437 50.7909 60.2454 43.4898 60.2454 34.5727C60.2454 25.6555 53.3437 18.3734 44.5977 17.727C44.9969 17.689 45.4152 17.689 45.8145 17.689H45.8525C55.169 17.708 62.7172 25.2562 62.7172 34.5727Z" fill="#F46C31" stroke="#F46C31" stroke-width="1.26304" stroke-miterlimit="10"/>
<path d="M60.26 34.5728C60.26 43.4899 53.3582 50.7719 44.6121 51.4184C44.403 51.3994 44.1938 51.3804 43.9847 51.3613C35.5239 50.4297 28.9453 43.2807 28.9453 34.5728C28.9453 25.8647 35.5239 18.7157 43.9847 17.7841C44.1938 17.7651 44.403 17.7461 44.6121 17.7271C53.3582 18.3735 60.26 25.6556 60.26 34.5728Z" fill="#3D1909" stroke="#F46C31" stroke-width="1.26304" stroke-miterlimit="10"/>
<path d="M43.3799 56.8751C44.1974 56.9701 45.015 57.0082 45.8326 57.0082H40.9082C28.5116 57.0082 18.4727 46.9692 18.4727 34.5726C18.4727 22.1762 28.5116 12.1372 40.9082 12.1372H45.8326C44.996 12.1372 44.1784 12.1752 43.3799 12.2703C32.1431 13.5061 23.397 23.0127 23.397 34.5726C23.397 46.1326 32.1431 55.6582 43.3799 56.8751Z" fill="#3D1909" stroke="#F46C31" stroke-width="1.26304" stroke-miterlimit="10"/>
<path d="M33.4362 15.8823H28.5117" stroke="#F46C31" stroke-width="1.26304" stroke-miterlimit="10"/>
<path d="M28.2837 20.5977H23.3594" stroke="#F46C31" stroke-width="1.26304" stroke-miterlimit="10"/>
<path d="M25.3966 25.332H20.4531" stroke="#F46C31" stroke-width="1.26304" stroke-miterlimit="10"/>
<path d="M23.8501 30.0664H18.9258" stroke="#F46C31" stroke-width="1.26304" stroke-miterlimit="10"/>
<path d="M23.397 34.7817H18.4727" stroke="#F46C31" stroke-width="1.26304" stroke-miterlimit="10"/>
<path d="M23.9479 39.5161H19.0234" stroke="#F46C31" stroke-width="1.26304" stroke-miterlimit="10"/>
<path d="M25.5846 44.2495H20.6602" stroke="#F46C31" stroke-width="1.26304" stroke-miterlimit="10"/>
<path d="M28.6237 48.9653H23.6992" stroke="#F46C31" stroke-width="1.26304" stroke-miterlimit="10"/>
<path d="M36.8034 55.126H31.8789" stroke="#F46C31" stroke-width="1.26304" stroke-miterlimit="10"/>
<mask id="mask1_462_221578" style="mask-type:luminance" maskUnits="userSpaceOnUse" x="39" y="24" width="13" height="21">
<path d="M51.7318 24.5771H39.457V44.3497H51.7318V24.5771Z" fill="white"/>
</mask>
<g mask="url(#mask1_462_221578)">
<path d="M50.7897 34.4637C50.5191 34.1048 50.2022 33.788 49.8455 33.5195C49.5938 33.3306 49.3209 33.1649 49.0314 33.0284C49.1447 32.8858 49.2475 32.7325 49.3378 32.5753C49.6609 32.0192 49.8434 31.375 49.8434 30.6867C49.8434 29.9985 49.6588 29.3544 49.3378 28.7983C49.0062 28.2255 48.5278 27.7471 47.955 27.4156C47.6612 27.2456 47.3444 27.1155 47.0108 27.0274V25.0215H45.1223V26.9099H44.1781V25.0215H42.2897V26.9099H39.457V28.7983H40.4012V40.1289H39.457V42.0173H42.2897V43.9058H44.1781V42.0173H45.1223V43.9058H47.0108V42.0173C47.3339 42.0173 47.6507 41.9859 47.955 41.923C48.6516 41.7824 49.2937 41.4865 49.8434 41.0753C50.2001 40.8066 50.5191 40.4878 50.7876 40.131C51.3793 39.3421 51.7318 38.3601 51.7318 37.2984C51.7318 36.2367 51.3814 35.2526 50.7897 34.4637ZM42.2917 28.7983H46.0687C46.4128 28.7983 46.7359 28.8907 47.0129 29.0522C47.5772 29.3774 47.9571 29.988 47.9571 30.6867C47.9571 31.3855 47.5772 31.9961 47.0129 32.3213C46.7359 32.4829 46.4128 32.5753 46.0687 32.5753H42.2917V28.7983ZM47.9571 39.9674C47.6612 40.0723 47.3444 40.1289 47.0129 40.1289H42.2917V34.4637H47.0129C47.3444 34.4637 47.6612 34.5203 47.9571 34.6252C49.0587 35.0155 49.8455 36.0646 49.8455 37.2963C49.8455 38.528 49.0587 39.5792 47.9571 39.9674Z" fill="#F46C31"/>
</g>
</g>
</g>
</g>
<defs>
<clipPath id="clip0_462_221578">
<rect width="80" height="81.03" fill="white" transform="translate(0.5 0.0297852)"/>
</clipPath>
<clipPath id="clip1_462_221578">
<rect width="80" height="81.039" fill="white" transform="translate(0.5 0.0253906)"/>
</clipPath>
</defs>
</svg>
