<svg width="81" height="81" viewBox="0 0 81 81" fill="none" xmlns="http://www.w3.org/2000/svg">
<mask id="mask0_462_221639" style="mask-type:luminance" maskUnits="userSpaceOnUse" x="1" y="1" width="79" height="79">
<path d="M79.7823 40.3702C79.7823 18.6765 62.1962 1.09033 40.5025 1.09033C18.8088 1.09033 1.22266 18.6765 1.22266 40.3702C1.22266 62.0638 18.8088 79.65 40.5025 79.65C62.1962 79.65 79.7823 62.0638 79.7823 40.3702Z" fill="white"/>
</mask>
<g mask="url(#mask0_462_221639)">
<path d="M79.7823 40.3702C79.7823 18.6765 62.1962 1.09033 40.5025 1.09033C18.8088 1.09033 1.22266 18.6765 1.22266 40.3702C1.22266 62.0638 18.8088 79.65 40.5025 79.65C62.1962 79.65 79.7823 62.0638 79.7823 40.3702Z" fill="#3D1909"/>
<mask id="mask1_462_221639" style="mask-type:luminance" maskUnits="userSpaceOnUse" x="-17" y="6" width="87" height="70">
<path d="M69.9593 6.5459H-16.2383V75.2447H69.9593V6.5459Z" fill="white"/>
</mask>
<g mask="url(#mask1_462_221639)">
<path d="M47.57 28.1362H-14.1758V72.2121H47.57V28.1362Z" fill="#3D1909" stroke="#F46C31" stroke-width="0.972152" stroke-miterlimit="10"/>
<path d="M-5.09375 52.7393H20.6957" stroke="#F46C31" stroke-width="0.972152" stroke-miterlimit="10"/>
<path d="M-5.09375 56.3569H20.6957" stroke="#F46C31" stroke-width="0.972152" stroke-miterlimit="10"/>
<path d="M-5.09375 49.1333H38.354" stroke="#F46C31" stroke-width="0.972152" stroke-miterlimit="10"/>
<path d="M28.3388 68.9634L28.4911 69.9002L29.1623 69.2292L32.7567 65.6347L33.1004 65.2909L32.7567 64.9472L30.5116 62.7022L30.1679 62.3584L29.8242 62.7022L26.2298 66.2967L25.5586 66.9677L26.4954 67.1201L28.0809 67.378L28.3388 68.9634Z" fill="#3D1909" stroke="#F46C31" stroke-width="0.972152" stroke-miterlimit="10"/>
<path d="M35.6608 69.2292L36.3319 69.9002L36.4843 68.9634L36.7421 67.378L38.3276 67.1201L39.2644 66.9677L38.5933 66.2967L34.9989 62.7022L34.6551 62.3584L34.3114 62.7022L32.0663 64.9472L31.7227 65.2909L32.0663 65.6347L35.6608 69.2292Z" fill="#3D1909" stroke="#F46C31" stroke-width="0.972152" stroke-miterlimit="10"/>
<path d="M37.8492 61.476L38.3437 61.0934L37.851 60.7085L36.5174 59.667L36.9945 58.0411L37.1719 57.4365L36.542 57.4184L34.8492 57.3697L34.2751 55.7738L34.0617 55.1808L33.5424 55.5378L32.1436 56.4994L30.7558 55.5387L30.2358 55.1787L30.0217 55.7738L29.4476 57.3697L27.7548 57.4184L27.1249 57.4365L27.3024 58.0411L27.7794 59.667L26.4458 60.7085L25.9531 61.0934L26.4476 61.476L27.779 62.5061L27.3024 64.1304L27.1249 64.735L27.7548 64.7532L29.4476 64.8018L30.0217 66.3977L30.2348 66.9899L30.7539 66.6341L32.1436 65.6818L33.5442 66.635L34.0628 66.9879L34.2751 66.3977L34.8492 64.8018L36.542 64.7532L37.1719 64.735L36.9945 64.1304L36.5178 62.5061L37.8492 61.476Z" fill="#3D1909" stroke="#F46C31" stroke-width="0.972152"/>
<path d="M37.8492 61.476L38.3437 61.0934L37.851 60.7085L36.5174 59.667L36.9945 58.0411L37.1719 57.4365L36.542 57.4184L34.8492 57.3697L34.2751 55.7738L34.0617 55.1808L33.5424 55.5378L32.1436 56.4994L30.7558 55.5387L30.2358 55.1787L30.0217 55.7738L29.4476 57.3697L27.7548 57.4184L27.1249 57.4365L27.3024 58.0411L27.7794 59.667L26.4458 60.7085L25.9531 61.0934L26.4476 61.476L27.779 62.5061L27.3024 64.1304L27.1249 64.735L27.7548 64.7532L29.4476 64.8018L30.0217 66.3977L30.2348 66.9899L30.7539 66.6341L32.1436 65.6818L33.5442 66.635L34.0628 66.9879L34.2751 66.3977L34.8492 64.8018L36.542 64.7532L37.1719 64.735L36.9945 64.1304L36.5178 62.5061L37.8492 61.476Z" stroke="#F46C31" stroke-width="0.972152" stroke-miterlimit="10"/>
<path d="M32.1472 63.8946C33.6955 63.8946 34.9506 62.6394 34.9506 61.0911C34.9506 59.5428 33.6955 58.2876 32.1472 58.2876C30.5989 58.2876 29.3438 59.5428 29.3438 61.0911C29.3438 62.6394 30.5989 63.8946 32.1472 63.8946Z" fill="#F46C31"/>
<path opacity="0.3" d="M38.5634 34.395H-5.09375V39.2808H38.5634V34.395Z" fill="#FBC4AD"/>
<path d="M64.6792 29.707C64.6792 32.5802 60.538 34.6043 59.5027 37.1053C58.4326 39.6994 59.8866 44.05 57.9324 46.0042C55.9781 47.9586 51.6274 46.5044 49.0334 47.5747C47.3002 48.2959 45.7995 50.5061 44.0779 51.7972C42.3563 50.5061 40.8557 48.2959 39.1224 47.5747C36.5284 46.5044 32.1778 47.9586 30.2235 46.0042C28.2693 44.05 29.7233 39.6994 28.6531 37.1053C27.6178 34.6043 23.4766 32.5802 23.4766 29.707C23.4766 26.8337 27.6178 24.8096 28.6531 22.3086C29.7233 19.7146 28.2693 15.364 30.2235 13.4097C32.1778 11.4555 36.5284 12.9095 39.1224 11.8393C40.8557 11.1181 42.3563 8.90791 44.0779 7.6167C45.7995 8.90791 47.3002 11.1181 49.0334 11.8393C51.6274 12.9095 55.9781 11.4555 57.9324 13.4097C59.8866 15.364 58.4326 19.7146 59.5027 22.3086C60.538 24.7981 64.6792 26.8337 64.6792 29.707Z" fill="#3D1909" stroke="#F46C31" stroke-width="0.972152" stroke-miterlimit="10"/>
<path d="M64.6821 29.7063C64.6821 32.5795 60.5409 34.6036 59.5056 37.1046C58.4354 39.6987 59.8894 44.0492 57.9352 46.0035C55.9809 47.9578 51.6304 46.5037 49.0363 47.5739C47.303 48.2952 45.8024 50.5053 44.0808 51.7965C43.7085 52.0757 43.3246 52.3084 42.9408 52.4829C42.5221 52.6573 42.0916 52.7621 41.638 52.7621C39.2067 52.7621 37.3688 49.7841 35.3447 48.237C34.9841 47.9578 34.6118 47.7368 34.2396 47.5739C31.6455 46.5037 27.295 47.9578 25.3407 46.0035C23.3864 44.0492 24.8405 39.6987 23.7703 37.1046C22.735 34.6036 18.5938 32.5795 18.5938 29.7063C18.5938 26.833 22.735 24.8089 23.7703 22.3079C24.8405 19.7138 23.3864 15.3633 25.3407 13.409C27.295 11.4548 31.6455 12.9088 34.2396 11.8386C36.7522 10.8033 38.7763 6.66211 41.6495 6.66211C42.5336 6.66211 43.3363 7.05762 44.0924 7.62761C44.8602 8.20924 45.593 8.97699 46.3259 9.70984C47.21 10.6056 48.0941 11.4548 49.0479 11.8503C50.502 12.4552 52.5261 12.2573 54.3523 12.3156C55.7715 12.362 57.0861 12.5598 57.9352 13.4206C59.8894 15.3749 58.4354 19.7255 59.5056 22.3196C60.5409 24.7973 64.6821 26.833 64.6821 29.7063Z" fill="#3D1909" stroke="#F46C31" stroke-width="0.972152" stroke-miterlimit="10"/>
<path d="M69.5783 29.7066C69.5783 32.5799 65.437 34.6039 64.4018 37.1049C63.3316 39.699 64.7857 44.0495 62.8314 46.0039C60.8771 47.9581 56.5265 46.5041 53.9324 47.5742C51.4314 48.6095 49.4074 52.7508 46.5341 52.7508H41.6484C42.5325 52.7508 43.3352 52.3553 44.0913 51.7852C45.8128 50.494 47.3135 48.2839 49.0468 47.5627C51.6408 46.4924 55.9914 47.9465 57.9457 45.9922C59.8999 44.0379 58.4459 39.6874 59.5161 37.0933C60.5514 34.5923 64.6925 32.5682 64.6925 29.695C64.6925 26.8217 60.5514 24.7976 59.5161 22.2966C58.4459 19.7026 59.8999 15.352 57.9457 13.3977C55.9914 11.4434 51.6408 12.8975 49.0468 11.8273C47.3135 11.106 45.8128 8.89589 44.0913 7.60467C43.3352 7.03467 42.5325 6.63916 41.6484 6.63916H46.5341C49.4074 6.63916 51.4314 10.7804 53.9324 11.8157C56.5265 12.8858 60.8771 11.4318 62.8314 13.386C64.7857 15.3403 63.3316 19.691 64.4018 22.285C65.4255 24.7976 69.5783 26.8333 69.5783 29.7066Z" fill="#3D1909" stroke="#F46C31" stroke-width="0.972152" stroke-miterlimit="10"/>
<path opacity="0.3" d="M31.2031 47.1089L42.824 6.89502L45.2902 8.6748C42.1378 19.7025 35.4374 42.8281 34.088 47.5044L31.2031 47.1089Z" fill="#FBC4AD"/>
<path opacity="0.3" d="M54.3513 12.304C51.0942 23.7271 44.231 47.8997 42.9398 52.4597C42.521 52.6341 42.0906 52.7388 41.637 52.7388C39.2057 52.7388 37.3677 49.7609 35.3438 48.2137L46.3132 9.69824C47.1973 10.5939 48.0814 11.4431 49.0352 11.8386C50.501 12.4436 52.5134 12.2458 54.3513 12.304Z" fill="#FBC4AD"/>
<path d="M32.4188 28.1825H32.0117C32.1513 28.1709 32.2792 28.1709 32.4188 28.1825Z" fill="#EC6B30" stroke="#F46C31" stroke-width="0.972152" stroke-miterlimit="10"/>
<path d="M50.2127 24.6344C50.1545 24.7159 50.0964 24.7857 50.0149 24.8671L38.8011 36.0809L38.5568 36.3252C38.2079 36.6742 37.7541 36.8487 37.2889 36.8487C36.8351 36.8487 36.3699 36.6742 36.0209 36.3252L30.9258 31.2301C30.2279 30.5322 30.2279 29.4039 30.9258 28.7059C31.2283 28.4034 31.6006 28.2406 31.9844 28.194H32.3915C32.7754 28.2406 33.1592 28.4034 33.4501 28.7059L37.2772 32.533L38.7778 31.0324L47.4673 22.3428C47.8164 21.9939 48.27 21.8193 48.7353 21.8193C49.189 21.8193 49.6543 21.9939 50.0032 22.3428C50.0847 22.4243 50.1545 22.5173 50.2243 22.6104C50.6547 23.2152 50.643 24.0179 50.2127 24.6344Z" fill="#EC6B30" stroke="#F46C31" stroke-width="0.972152" stroke-miterlimit="10"/>
<path d="M53.2218 24.6344C53.1636 24.7157 53.1055 24.7856 53.024 24.867L41.566 36.3251C41.217 36.6741 40.7633 36.8485 40.298 36.8485H37.2852C37.7388 36.8485 38.2041 36.6741 38.5531 36.3251L38.7974 36.0808L50.0112 24.867C50.081 24.7972 50.1508 24.7157 50.209 24.6344C50.6393 24.0295 50.651 23.2152 50.2322 22.5986C50.1741 22.5056 50.0926 22.4125 50.0112 22.3311C49.6622 21.9821 49.2085 21.8076 48.7432 21.8076H51.7561C52.2098 21.8076 52.6751 21.9821 53.024 22.3311C53.6522 22.9592 53.722 23.9363 53.2218 24.6344Z" fill="#3D1909" stroke="#F46C31" stroke-width="0.972152" stroke-miterlimit="10"/>
<path d="M38.8081 31.0217L37.3075 32.5223L33.4804 28.6951C33.178 28.3926 32.8058 28.2298 32.4219 28.1833H35.0276C35.551 28.1251 36.0978 28.288 36.4933 28.6951L38.8081 31.0217Z" fill="black" stroke="#F46C31" stroke-width="0.972152" stroke-miterlimit="10"/>
</g>
</g>
</svg>
