<svg width="1498" height="1499" viewBox="0 0 1498 1499" fill="none" xmlns="http://www.w3.org/2000/svg">
<path d="M181.136 1498.8L181.136 0.878906M370.149 1498.8L370.149 0.878906M559.161 1498.8L559.161 0.878906M748.173 1498.8L748.173 0.878906M937.186 1498.8L937.186 0.878906M1126.2 1498.8L1126.2 0.878906M1315.21 1498.8L1315.21 0.878906M4.95704e-05 182.016H1497.92M4.13087e-05 371.028H1497.92M3.3047e-05 560.04H1497.92M2.47852e-05 749.053H1497.92M1.65235e-05 938.065H1497.92M8.26174e-06 1127.08H1497.92M0 1316.09H1497.92" stroke="url(#paint0_radial_410_45329)" stroke-width="0.468101"/>
<defs>
<radialGradient id="paint0_radial_410_45329" cx="0" cy="0" r="1" gradientUnits="userSpaceOnUse" gradientTransform="translate(748.961 749.84) rotate(90) scale(748.961)">
<stop stop-color="#F46C31"/>
<stop offset="1" stop-color="#333333" stop-opacity="0"/>
</radialGradient>
</defs>
</svg>
