<svg width="22" height="23" viewBox="0 0 22 23" fill="none" xmlns="http://www.w3.org/2000/svg">
<g clip-path="url(#clip0_641_24961)">
<path d="M15.6679 6.1167H17.0012M7.0013 2.1167H15.0012C17.9468 2.1167 20.3347 4.50452 20.3347 7.45004V15.45C20.3347 18.3956 17.9468 20.7834 15.0012 20.7834H7.0013C4.05578 20.7834 1.66797 18.3956 1.66797 15.45V7.45004C1.66797 4.50452 4.05578 2.1167 7.0013 2.1167ZM11.0012 15.45C8.79216 15.45 7.0013 13.6592 7.0013 11.45C7.0013 9.2409 8.79216 7.45004 11.0012 7.45004C13.2104 7.45004 15.0012 9.2409 15.0012 11.45C15.0012 13.6592 13.2104 15.45 11.0012 15.45Z" stroke="#838F91" stroke-width="1.5"/>
</g>
<defs>
<clipPath id="clip0_641_24961">
<rect width="22" height="22" fill="white" transform="translate(0 0.450195)"/>
</clipPath>
</defs>
</svg>
