<svg width="81" height="82" viewBox="0 0 81 82" fill="none" xmlns="http://www.w3.org/2000/svg">
<g clip-path="url(#clip0_462_221672)">
<g clip-path="url(#clip1_462_221672)">
<mask id="mask0_462_221672" style="mask-type:luminance" maskUnits="userSpaceOnUse" x="0" y="0" width="81" height="81">
<path d="M80.1464 40.3681C80.1464 18.3927 62.3318 0.578125 40.3564 0.578125C18.381 0.578125 0.566406 18.3927 0.566406 40.3681C0.566406 62.3435 18.381 80.1581 40.3564 80.1581C62.3318 80.1581 80.1464 62.3435 80.1464 40.3681Z" fill="white"/>
</mask>
<g mask="url(#mask0_462_221672)">
<path d="M80.1464 40.3681C80.1464 18.3927 62.3318 0.578125 40.3564 0.578125C18.381 0.578125 0.566406 18.3927 0.566406 40.3681C0.566406 62.3435 18.381 80.1581 40.3564 80.1581C62.3318 80.1581 80.1464 62.3435 80.1464 40.3681Z" fill="#3D1909"/>
<path d="M-48.3855 14.5898H-53.0195V16.2258H-48.3845L-48.3855 14.5898ZM68.0475 27.4588V74.3528C68.0454 72.8929 67.4645 71.4934 66.4322 70.4611C65.3999 69.4288 64.0004 68.848 62.5405 68.8458H23.6985V27.4588H68.0475Z" fill="#3D1909" stroke="#F46C31" stroke-miterlimit="10" stroke-linejoin="round"/>
<path d="M68.0462 74.3332H57.0312C57.0334 72.8733 57.6142 71.4738 58.6465 70.4415C59.6788 69.4092 61.0784 68.8283 62.5383 68.8262C65.5743 68.8442 68.0462 71.2982 68.0462 74.3332Z" fill="#3D1909" stroke="#F46C31" stroke-miterlimit="10" stroke-linejoin="round"/>
<path d="M68.0462 74.3345C68.0439 75.7945 67.4628 77.194 66.4303 78.2262C65.3978 79.2585 63.9982 79.8394 62.5383 79.8415C61.0784 79.8394 59.6788 79.2585 58.6465 78.2262C57.6142 77.1939 57.0334 75.7944 57.0312 74.3345H68.0462Z" fill="#3D1909" stroke="#F46C31" stroke-miterlimit="10" stroke-linejoin="round"/>
<path d="M62.5365 79.8416H23.6955C22.2353 79.8398 20.8354 79.2589 19.8028 78.2263C18.7703 77.1938 18.1894 75.7939 18.1875 74.3336C18.1896 72.8735 18.7706 71.4739 19.8032 70.4416C20.8357 69.4092 22.2354 68.8285 23.6955 68.8266H62.5365C61.0766 68.8287 59.6771 69.4096 58.6448 70.4419C57.6125 71.4742 57.0316 72.8737 57.0295 74.3336C57.029 75.057 57.1711 75.7734 57.4476 76.4418C57.7242 77.1103 58.1298 77.7176 58.6412 78.2292C59.1527 78.7407 59.76 79.1464 60.4284 79.4231C61.0968 79.6998 61.8131 79.842 62.5365 79.8416ZM39.6915 34.6926C41.6101 34.6926 43.4501 33.9305 44.8067 32.5738C46.1633 31.2172 46.9255 29.3772 46.9255 27.4586C46.9255 25.54 46.1633 23.7 44.8067 22.3434C43.4501 20.9868 41.6101 20.2246 39.6915 20.2246C37.7729 20.2246 35.9329 20.9868 34.5763 22.3434C33.2196 23.7 32.4575 25.54 32.4575 27.4586C32.4575 29.3772 33.2196 31.2172 34.5763 32.5738C35.9329 33.9305 37.7729 34.6926 39.6915 34.6926Z" fill="#3D1909" stroke="#F46C31" stroke-miterlimit="10" stroke-linejoin="round"/>
<path opacity="0.3" d="M39.6914 39.6184L45.8714 48.9424L47.9254 43.7624L54.8504 43.2714L46.9254 34.6914L39.6914 39.6184Z" fill="#3D190A"/>
<path d="M31.0753 47.6157L30.2573 42.6177L25.2773 41.7997L34.5653 32.5117L40.3633 38.3277L31.0753 47.6157Z" fill="#3D1909" stroke="#F46C31" stroke-miterlimit="10" stroke-linejoin="round"/>
<path d="M49.6513 47.6157L50.4693 42.6177L55.4673 41.7997L46.1793 32.5117L40.3633 38.3277L49.6513 47.6157Z" fill="#3D1909" stroke="#F46C31" stroke-miterlimit="10" stroke-linejoin="round"/>
<path d="M53.6688 27.4583L49.5248 30.6573L50.9968 35.6733L45.7628 35.8193L44.0178 40.7443L39.6918 37.8003L35.3658 40.7443L33.6208 35.8193L28.3868 35.6733L29.8588 30.6573L25.7148 27.4573L29.8588 24.2593L28.3868 19.2423L33.6208 19.0793L35.3658 14.1533L39.6918 17.1163L44.0178 14.1533L45.7628 19.0793L50.9968 19.2423L49.5248 24.2593L53.6688 27.4583Z" stroke="#F46C31" stroke-miterlimit="10" stroke-linejoin="round"/>
<path d="M27.5352 52.8867H61.5242M27.5352 56.8127H49.8002" stroke="#F46C31" stroke-miterlimit="10" stroke-linejoin="round"/>
</g>
</g>
</g>
<defs>
<clipPath id="clip0_462_221672">
<rect width="80" height="81.03" fill="white" transform="translate(0.5 0.0297852)"/>
</clipPath>
<clipPath id="clip1_462_221672">
<rect width="80" height="81.039" fill="white" transform="translate(0.5 0.0253906)"/>
</clipPath>
</defs>
</svg>
