<svg width="80" height="80" viewBox="0 0 80 80" fill="none" xmlns="http://www.w3.org/2000/svg">
<g filter="url(#filter0_d_641_10427)">
<rect x="12.35" y="8.35" width="55.4875" height="55.4875" rx="27.7437" stroke="#F46C31" stroke-width="0.7" shape-rendering="crispEdges"/>
<path d="M28.7383 47.1065C28.7383 44.7335 29.681 42.4577 31.3589 40.7797C33.0369 39.1018 35.3127 38.1591 37.6857 38.1591C40.0587 38.1591 42.3345 39.1018 44.0125 40.7797C45.6904 42.4577 46.6331 44.7335 46.6331 47.1065H28.7383ZM37.6866 37.0399C36.8052 37.0403 35.9324 36.8671 35.118 36.5301C34.3036 36.1931 33.5636 35.6989 32.9403 35.0758C32.317 34.4526 31.8226 33.7128 31.4854 32.8985C31.1481 32.0841 30.9747 31.2114 30.9749 30.33C30.9747 29.4486 31.1481 28.5758 31.4854 27.7615C31.8226 26.9472 32.317 26.2074 32.9403 25.5842C33.5636 24.9611 34.3036 24.4669 35.118 24.1299C35.9324 23.7929 36.8052 23.6196 37.6866 23.6201C38.5678 23.6199 39.4404 23.7933 40.2546 24.1304C41.0688 24.4675 41.8086 24.9617 42.4317 25.5849C43.0548 26.208 43.5491 26.9478 43.8862 27.762C44.2233 28.5761 44.3967 29.4488 44.3965 30.33C44.3967 31.2112 44.2233 32.0838 43.8862 32.898C43.5491 33.7122 43.0548 34.452 42.4317 35.0751C41.8086 35.6982 41.0688 36.1925 40.2546 36.5296C39.4404 36.8667 38.5678 37.0401 37.6866 37.0399ZM45.9208 39.5375C47.6318 39.9769 49.1606 40.9451 50.2892 42.3042C51.4179 43.6633 52.0888 45.3438 52.2065 47.1065H48.8715C48.8746 44.3019 47.8203 41.5992 45.919 39.5375H45.9208ZM43.6588 36.9927C44.596 36.1544 45.3455 35.1275 45.8581 33.9793C46.3707 32.831 46.6348 31.5874 46.6331 30.33C46.6355 28.8019 46.2448 27.2989 45.4985 25.9655C46.931 26.2413 48.199 27.0661 49.0319 28.2638C49.8648 29.4615 50.1966 30.9374 49.9566 32.3763C49.7165 33.8153 48.9236 35.1035 47.747 35.9659C46.5704 36.8284 45.1033 37.1969 43.6588 36.9927Z" fill="#F46C31"/>
</g>
<defs>
<filter id="filter0_d_641_10427" x="0.6" y="0.6" width="78.9875" height="78.9875" filterUnits="userSpaceOnUse" color-interpolation-filters="sRGB">
<feFlood flood-opacity="0" result="BackgroundImageFix"/>
<feColorMatrix in="SourceAlpha" type="matrix" values="0 0 0 0 0 0 0 0 0 0 0 0 0 0 0 0 0 0 127 0" result="hardAlpha"/>
<feOffset dy="4"/>
<feGaussianBlur stdDeviation="5.7"/>
<feComposite in2="hardAlpha" operator="out"/>
<feColorMatrix type="matrix" values="0 0 0 0 0 0 0 0 0 0 0 0 0 0 0 0 0 0 0.05 0"/>
<feBlend mode="normal" in2="BackgroundImageFix" result="effect1_dropShadow_641_10427"/>
<feBlend mode="normal" in="SourceGraphic" in2="effect1_dropShadow_641_10427" result="shape"/>
</filter>
</defs>
</svg>
