<svg width="81" height="81" viewBox="0 0 81 81" fill="none" xmlns="http://www.w3.org/2000/svg">
<g clip-path="url(#clip0_462_221536)">
<g clip-path="url(#clip1_462_221536)">
<mask id="mask0_462_221536" style="mask-type:luminance" maskUnits="userSpaceOnUse" x="1" y="1" width="80" height="79">
<path d="M80.0597 40.3702C80.0597 18.6765 62.4735 1.09033 40.7798 1.09033C19.0862 1.09033 1.5 18.6765 1.5 40.3702C1.5 62.0638 19.0862 79.65 40.7798 79.65C62.4735 79.65 80.0597 62.0638 80.0597 40.3702Z" fill="white"/>
</mask>
<g mask="url(#mask0_462_221536)">
<path d="M80.0597 40.3702C80.0597 18.6765 62.4735 1.09033 40.7798 1.09033C19.0862 1.09033 1.5 18.6765 1.5 40.3702C1.5 62.0638 19.0862 79.65 40.7798 79.65C62.4735 79.65 80.0597 62.0638 80.0597 40.3702Z" fill="#3D1909"/>
<mask id="mask1_462_221536" style="mask-type:luminance" maskUnits="userSpaceOnUse" x="-6" y="6" width="147" height="78">
<path d="M140.07 6.5459H-5.04688V83.5289H140.07V6.5459Z" fill="white"/>
</mask>
<g mask="url(#mask1_462_221536)">
<path d="M52.3345 47.2373C52.3345 58.6463 43.7028 68.0285 32.6317 69.2482C21.5418 68.0473 12.9102 58.6463 12.9102 47.2373C12.9102 35.8285 21.5418 26.4275 32.6317 25.2266C43.7028 26.4463 52.3345 35.8285 52.3345 47.2373Z" fill="#3D1909" stroke="#F46C31" stroke-width="1.32729" stroke-miterlimit="10"/>
<path d="M57.1946 47.237C57.1946 59.4714 47.2868 69.3791 35.0523 69.3791C34.2267 69.3791 33.4198 69.3416 32.6317 69.2478C21.5418 68.0469 12.9102 58.6458 12.9102 47.237C12.9102 35.8281 21.5418 26.427 32.6317 25.2261C33.4386 25.1323 34.2454 25.0947 35.0523 25.0947H35.0898C47.3055 25.1323 57.1946 35.0212 57.1946 47.237Z" fill="#3D1909" stroke="#F46C31" stroke-width="1.32729" stroke-miterlimit="10"/>
<path d="M51.7147 47.2371C51.7147 56.4318 44.2464 63.9001 35.0517 63.9001C34.6389 63.9001 34.2449 63.8813 33.832 63.8625C42.4637 63.2433 49.2753 56.0377 49.2753 47.2371C49.2753 38.4366 42.4637 31.2497 33.832 30.6118C34.2261 30.5742 34.6389 30.5742 35.033 30.5742H35.0705C44.2839 30.593 51.7147 38.0425 51.7147 47.2371Z" fill="#3D1909" stroke="#F46C31" stroke-width="1.32729" stroke-miterlimit="10"/>
<path d="M49.2919 47.2368C49.2919 56.0374 42.4805 63.2242 33.8488 63.8622C33.6423 63.8434 33.4359 63.8247 33.2295 63.8059C24.8792 62.8864 18.3867 55.8309 18.3867 47.2368C18.3867 38.6426 24.8792 31.5871 33.2295 30.6676C33.4359 30.6489 33.6423 30.6301 33.8488 30.6113C42.4805 31.2494 49.2919 38.4549 49.2919 47.2368Z" fill="#3D1909" stroke="#F46C31" stroke-width="1.32729" stroke-miterlimit="10"/>
<path d="M32.6284 69.2478C33.4353 69.3416 34.2422 69.3791 35.0491 69.3791H30.1891C17.9546 69.3791 8.04688 59.4714 8.04688 47.237C8.04688 35.0024 17.9546 25.0947 30.1891 25.0947H35.0491C34.2234 25.0947 33.4165 25.1323 32.6284 25.2261C21.5386 26.4458 12.9069 35.8281 12.9069 47.237C12.9069 58.6458 21.5386 68.0469 32.6284 69.2478Z" fill="#3D1909" stroke="#F46C31" stroke-width="1.32729" stroke-miterlimit="10"/>
<path d="M22.8171 28.791H17.957" stroke="#F46C31" stroke-width="1.32729" stroke-miterlimit="10"/>
<path d="M17.7311 33.4448H12.8711" stroke="#F46C31" stroke-width="1.32729" stroke-miterlimit="10"/>
<path d="M14.8757 38.1172H10.0156" stroke="#F46C31" stroke-width="1.32729" stroke-miterlimit="10"/>
<path d="M13.3561 42.7896H8.49609" stroke="#F46C31" stroke-width="1.32729" stroke-miterlimit="10"/>
<path d="M12.9069 47.4429H8.04688" stroke="#F46C31" stroke-width="1.32729" stroke-miterlimit="10"/>
<path d="M13.4498 52.1157H8.58984" stroke="#F46C31" stroke-width="1.32729" stroke-miterlimit="10"/>
<path d="M15.0632 56.7876H10.2031" stroke="#F46C31" stroke-width="1.32729" stroke-miterlimit="10"/>
<path d="M18.067 61.4409H13.207" stroke="#F46C31" stroke-width="1.32729" stroke-miterlimit="10"/>
<path d="M26.1373 67.521H21.2773" stroke="#F46C31" stroke-width="1.32729" stroke-miterlimit="10"/>
<path d="M49.0041 82.1717H30.3477L36.4431 29.4189H42.9086V29.435L49.0041 82.1717Z" fill="#3D1909" stroke="#F46C31" stroke-width="1.32729" stroke-miterlimit="10" stroke-linejoin="round"/>
<path opacity="0.3" d="M49.001 82.1717L39.9141 82.2521V82.1717L39.9784 29.4189H42.9056L49.001 82.1717Z" fill="#FBC4AD"/>
<path d="M30.4258 82.1715L39.9148 76.5425L48.9214 82.1715H30.4258Z" fill="#F8A783"/>
<path d="M42.9029 29.4189H36.4375V29.4028C36.6304 27.7623 38.0136 26.5239 39.6702 26.5239C39.7827 26.5239 39.8792 26.5239 39.9919 26.54C40.6994 26.6043 41.3267 26.8939 41.8414 27.3441C42.4204 27.8588 42.8064 28.5665 42.9029 29.3706V29.4189Z" fill="#FBC4AD" stroke="#F46C31" stroke-width="1.32729" stroke-miterlimit="10" stroke-linejoin="round"/>
<path d="M131.03 82.1718H49.0056L42.9102 29.4673C42.9102 29.4995 42.9102 29.5156 42.9262 29.5477L43.0066 30.2393L43.0388 30.5609L43.1996 31.9923L46.175 57.5645L46.2233 57.9023C46.2876 58.2722 46.4002 58.6099 46.5449 58.9316C47.1721 60.2183 48.4588 61.0868 49.9546 61.119C49.9707 61.119 50.0028 61.119 50.0189 61.119H124.275C125.433 61.119 126.462 60.6043 127.17 59.8162C127.363 59.5911 127.539 59.3497 127.684 59.0924C127.941 58.5295 128.038 57.8541 128.135 57.259V57.3233C128.135 57.2751 128.135 57.2268 128.135 57.1947L128.585 61.135L131.03 82.1718Z" fill="#3D1909" stroke="#F46C31" stroke-width="1.32729" stroke-miterlimit="10" stroke-linejoin="round"/>
<path d="M128.129 57.3071V57.2428C128.033 57.8379 127.936 58.5134 127.679 59.0764C127.534 59.3337 127.373 59.5749 127.164 59.8001C126.456 60.5882 125.427 61.1028 124.27 61.1028H50.0294C49.9973 61.1028 49.9812 61.1028 49.9651 61.1028C48.4694 61.0706 47.1827 60.2021 46.5555 58.9155C46.3946 58.5938 46.2981 58.256 46.2338 57.8862L46.1855 57.5485L43.2101 31.9763L43.0493 30.5448L43.0172 30.2231L42.9207 29.5476C42.9207 29.5155 42.9207 29.4994 42.9046 29.4672V29.4511V29.4029C42.8081 28.5987 42.4221 27.875 41.8432 27.3765C41.3445 26.9261 40.7012 26.6366 39.9935 26.5723C39.897 26.5562 39.7845 26.5562 39.6719 26.5562H121.696C121.809 26.5562 121.905 26.5562 122.017 26.5723C122.725 26.6366 123.353 26.9261 123.867 27.3765C124.446 27.8911 124.833 28.5987 124.929 29.4029V29.4511L128.129 57.1785C128.129 57.2107 128.129 57.2589 128.129 57.3071Z" fill="#3D1909" stroke="#F46C31" stroke-width="1.32729" stroke-miterlimit="10" stroke-linejoin="round"/>
<path d="M46.1719 57.5483L46.2205 57.888C46.2043 57.8233 46.2043 57.7586 46.1881 57.694L46.1719 57.5483Z" fill="#3D1909" stroke="#F46C31" stroke-width="1.32729" stroke-miterlimit="10" stroke-linejoin="round"/>
<path opacity="0.3" d="M124.914 64.8019H50.6732C48.7111 64.8019 46.8777 63.0488 46.6525 61.1027L46.2344 57.8861C46.2987 58.256 46.4112 58.5938 46.556 58.9154C47.1832 60.2021 48.4699 61.0705 49.9657 61.1027C49.9817 61.1027 50.0139 61.1027 50.03 61.1027H124.286C125.444 61.1027 126.474 60.588 127.181 59.7999C127.406 59.607 127.567 59.3497 127.695 59.0762C127.904 58.7063 128.034 58.2881 128.114 57.8539C128.145 57.677 128.162 57.484 128.162 57.291L128.547 60.4915C128.789 62.8075 127.229 64.8019 124.914 64.8019Z" fill="#FBC4AD"/>
<path d="M67.6105 54.3472H62.0619L59.199 30.7694C59.0382 29.4344 58.5235 28.1638 57.7194 27.0863L57.2852 26.5073H62.8339C63.8953 27.6814 64.5547 29.145 64.7477 30.705L67.6105 54.3472Z" fill="#F46C31" stroke="#F46C31" stroke-width="1.32729" stroke-miterlimit="10" stroke-linejoin="round"/>
<path opacity="0.3" d="M67.6111 73.0366H62.0624L60.6953 61.6177H66.244L67.6111 73.0366Z" fill="#FBC4AD"/>
<path d="M69.9945 73.2613H64.4459L62.3711 55.6021H67.9198L69.9945 73.2613Z" fill="#F46C31" stroke="#F46C31" stroke-width="1.32729" stroke-miterlimit="10" stroke-linejoin="round"/>
<path d="M69.1175 55.1249C69.0631 54.6811 68.6863 54.3477 68.2392 54.3477H61.6702C61.1405 54.3477 60.7295 54.8098 60.7913 55.3359L61.7412 63.409C61.7936 63.8546 62.1712 64.1905 62.6199 64.1905H69.2286C69.7599 64.1905 70.1715 63.7254 70.1068 63.198L69.1175 55.1249ZM63.9557 62.5018C63.5066 62.5018 63.1288 62.1654 63.0768 61.7193L62.4789 56.5894C62.4176 56.0637 62.8286 55.6021 63.3578 55.6021H67.1248C67.5739 55.6021 67.9517 55.9385 68.0037 56.3846L68.6016 61.5144C68.6629 62.0402 68.2519 62.5018 67.7227 62.5018H63.9557Z" fill="#FBC4AD"/>
<path d="M83.9202 14.7028C78.3233 15.7321 74.0933 20.6375 74.0933 26.5239H69.7188C69.7188 19.8816 75.1066 14.5098 81.7328 14.5098C82.4888 14.5098 83.2125 14.5741 83.9202 14.7028Z" fill="#3D1909" stroke="#F46C31" stroke-width="1.32729" stroke-miterlimit="10" stroke-linejoin="round"/>
<path d="M74.1912 25.0762H65.9727V26.5237H74.1912V25.0762Z" fill="#3D1909" stroke="#F46C31" stroke-width="1.32729" stroke-miterlimit="10" stroke-linejoin="round"/>
<path d="M70.0739 25.0762H65.9727V26.5237H70.0739V25.0762Z" fill="#3D1909" stroke="#F46C31" stroke-width="1.32729" stroke-miterlimit="10" stroke-linejoin="round"/>
</g>
</g>
</g>
</g>
<defs>
<clipPath id="clip0_462_221536">
<rect width="80" height="80" fill="white" transform="translate(0.5 0.544922)"/>
</clipPath>
<clipPath id="clip1_462_221536">
<rect width="80" height="80" fill="white" transform="translate(0.5 0.544922)"/>
</clipPath>
</defs>
</svg>
