<svg width="82" height="80" viewBox="0 0 82 80" fill="none" xmlns="http://www.w3.org/2000/svg">
<g filter="url(#filter0_d_641_10405)">
<rect x="12.35" y="8.1625" width="57.3" height="55.4875" rx="27.7437" stroke="#F46C31" stroke-width="0.7" shape-rendering="crispEdges"/>
<path d="M31.7678 42.2865L36.1395 37.9148L39.3042 41.0776L44.4154 35.9664L46.4219 37.971V32.3776H40.8303L42.8349 34.384L39.3042 37.9148L36.1432 34.7502L30.6096 40.2819C29.4406 37.6656 29.3205 34.7003 30.2742 31.9981C31.2278 29.2958 33.1825 27.0627 35.7347 25.7597C38.2869 24.4566 41.2419 24.183 43.99 24.9954C46.7381 25.8077 49.0694 27.644 50.503 30.1252C51.9366 32.6065 52.3629 35.5434 51.6941 38.3299C51.0253 41.1163 49.3123 43.5397 46.9087 45.1C44.5051 46.6602 41.5942 47.2382 38.7768 46.7147C35.9594 46.1912 33.4505 44.6061 31.7678 42.2865Z" fill="#F46C31"/>
</g>
<defs>
<filter id="filter0_d_641_10405" x="0.6" y="0.4125" width="80.8" height="78.9875" filterUnits="userSpaceOnUse" color-interpolation-filters="sRGB">
<feFlood flood-opacity="0" result="BackgroundImageFix"/>
<feColorMatrix in="SourceAlpha" type="matrix" values="0 0 0 0 0 0 0 0 0 0 0 0 0 0 0 0 0 0 127 0" result="hardAlpha"/>
<feOffset dy="4"/>
<feGaussianBlur stdDeviation="5.7"/>
<feComposite in2="hardAlpha" operator="out"/>
<feColorMatrix type="matrix" values="0 0 0 0 0 0 0 0 0 0 0 0 0 0 0 0 0 0 0.05 0"/>
<feBlend mode="normal" in2="BackgroundImageFix" result="effect1_dropShadow_641_10405"/>
<feBlend mode="normal" in="SourceGraphic" in2="effect1_dropShadow_641_10405" result="shape"/>
</filter>
</defs>
</svg>
