<svg width="22" height="21" viewBox="0 0 22 21" fill="none" xmlns="http://www.w3.org/2000/svg">
<g clip-path="url(#clip0_641_24956)">
<path d="M20.302 2.45023L21.0503 2.40061C21.0304 2.09976 20.8322 1.8401 20.5473 1.74148C20.2623 1.64286 19.9461 1.72447 19.7444 1.94862L20.302 2.45023ZM19.7207 6.39544C19.7207 5.98122 19.3849 5.64544 18.9707 5.64544C18.5565 5.64544 18.2207 5.98122 18.2207 6.39544H19.7207ZM1.66413 17.1169V16.3669C1.33372 16.3669 1.04224 16.5831 0.946379 16.8993C0.850521 17.2155 0.972871 17.5571 1.24766 17.7406L1.66413 17.1169ZM2.99539 2.45023L3.69778 2.18724C3.59313 1.90774 3.33272 1.71689 3.03467 1.70126C2.73663 1.68563 2.45768 1.84821 2.32437 2.11523L2.99539 2.45023ZM8.32049 14.4502L8.85124 14.9801C9.03479 14.7963 9.11013 14.5306 9.05041 14.2778C8.99069 14.025 8.80439 13.8211 8.55799 13.7388L8.32049 14.4502ZM17.9522 3.74807L17.3959 4.25108L17.6661 4.54995L18.0645 4.48961L17.9522 3.74807ZM19.5536 2.49985C19.6221 3.53273 19.5578 4.14902 19.3953 4.60711C19.2383 5.04952 18.9639 5.41795 18.4518 5.90871L19.4896 6.99175C20.0775 6.42836 20.5398 5.86737 20.8089 5.1086C21.0725 4.36551 21.1238 3.50888 21.0503 2.40061L19.5536 2.49985ZM19.7207 7.36689V6.39544H18.2207V7.36689H19.7207ZM10.233 6.50503V7.78356H11.733V6.50502L10.233 6.50503ZM10.233 7.78356V8.45023H11.733V7.78356H10.233ZM15.0316 1.70023C12.3803 1.70023 10.233 3.8525 10.233 6.50503L11.733 6.50502C11.733 4.67873 13.2109 3.20023 15.0316 3.20023V1.70023ZM18.2207 7.36689C18.2207 13.0749 13.6009 17.7002 7.90447 17.7002V19.2002C14.4315 19.2002 19.7207 13.9011 19.7207 7.36689H18.2207ZM2.29302 2.71322C3.02488 4.66785 5.76973 8.53356 10.983 8.53356V7.03356C6.6112 7.03356 4.2972 3.78817 3.69778 2.18724L2.29302 2.71322ZM2.32437 2.11523C0.920689 4.92693 0.699577 7.6648 1.72631 10.0019C2.75043 12.333 4.95046 14.1158 8.083 15.1616L8.55799 13.7388C5.69979 12.7846 3.90601 11.2341 3.09963 9.39857C2.29585 7.56898 2.40755 5.30686 3.66642 2.78523L2.32437 2.11523ZM7.78975 13.9203C6.99752 14.7137 4.60389 16.3669 1.66413 16.3669V17.8669C5.11448 17.8669 7.86845 15.9644 8.85124 14.9801L7.78975 13.9203ZM18.5085 3.24506C17.6517 2.29748 16.4109 1.70023 15.0316 1.70023V3.20023C15.9689 3.20023 16.8112 3.60443 17.3959 4.25108L18.5085 3.24506ZM18.0645 4.48961C19.0983 4.33304 20.1049 3.79064 20.8595 2.95184L19.7444 1.94862C19.213 2.53934 18.517 2.90398 17.8399 3.00653L18.0645 4.48961ZM1.24766 17.7406C3.45907 19.2172 5.77804 19.2002 7.90447 19.2002V17.7002C5.72848 17.7002 3.86301 17.6832 2.0806 16.4931L1.24766 17.7406Z" fill="#838F91"/>
</g>
<defs>
<clipPath id="clip0_641_24956">
<rect width="22" height="20" fill="white" transform="translate(0 0.450195)"/>
</clipPath>
</defs>
</svg>
