<svg width="82" height="80" viewBox="0 0 82 80" fill="none" xmlns="http://www.w3.org/2000/svg">
<g filter="url(#filter0_d_641_10412)">
<rect x="12.35" y="8.35" width="57.0825" height="55.4875" rx="27.7437" stroke="#F46C31" stroke-width="0.7" shape-rendering="crispEdges"/>
<path d="M29.7969 32.6049H51.0466C51.3432 32.6049 51.6277 32.7227 51.8374 32.9324C52.0471 33.1422 52.1649 33.4266 52.1649 33.7232V44.9081C52.1649 45.2047 52.0471 45.4892 51.8374 45.6989C51.6277 45.9086 51.3432 46.0265 51.0466 46.0265H30.9152C30.6186 46.0265 30.3341 45.9086 30.1244 45.6989C29.9147 45.4892 29.7969 45.2047 29.7969 44.9081V32.6049ZM30.9152 25.895H47.6917V30.3665H29.7987V27.0133C29.7987 26.7167 29.9165 26.4323 30.1262 26.2226C30.336 26.0128 30.6186 25.895 30.9152 25.895ZM44.3368 38.1965V40.4331H47.6917V38.1965H44.3368Z" fill="#F46C31"/>
</g>
<defs>
<filter id="filter0_d_641_10412" x="0.6" y="0.6" width="80.5812" height="78.9875" filterUnits="userSpaceOnUse" color-interpolation-filters="sRGB">
<feFlood flood-opacity="0" result="BackgroundImageFix"/>
<feColorMatrix in="SourceAlpha" type="matrix" values="0 0 0 0 0 0 0 0 0 0 0 0 0 0 0 0 0 0 127 0" result="hardAlpha"/>
<feOffset dy="4"/>
<feGaussianBlur stdDeviation="5.7"/>
<feComposite in2="hardAlpha" operator="out"/>
<feColorMatrix type="matrix" values="0 0 0 0 0 0 0 0 0 0 0 0 0 0 0 0 0 0 0.05 0"/>
<feBlend mode="normal" in2="BackgroundImageFix" result="effect1_dropShadow_641_10412"/>
<feBlend mode="normal" in="SourceGraphic" in2="effect1_dropShadow_641_10412" result="shape"/>
</filter>
</defs>
</svg>
